<svg width="1130" height="1571" viewBox="0 0 1130 1571" fill="none" xmlns="http://www.w3.org/2000/svg">
<path d="M908.441 739.491C908.441 777.042 877.996 807.461 840.472 807.461C830.996 807.461 821.978 805.523 813.795 802.024C789.488 791.66 772.475 767.568 772.475 739.491C772.475 704.927 798.29 676.367 831.723 672.114C834.576 671.71 837.51 671.521 840.472 671.521C877.996 671.521 908.441 701.967 908.441 739.491Z" fill="#CA784F"/>
<path d="M289.528 807.461C327.067 807.461 357.498 777.03 357.498 739.491C357.498 701.953 327.067 671.521 289.528 671.521C251.99 671.521 221.559 701.953 221.559 739.491C221.559 777.03 251.99 807.461 289.528 807.461Z" fill="#CA784F"/>
<path d="M722.057 1112.8C721.814 1115.11 721.572 1117.43 721.249 1119.74C721.114 1120.88 720.953 1122.03 720.792 1123.19C720.603 1124.54 720.36 1125.83 720.119 1127.15C712.662 1168.79 687.654 1190.94 659.848 1202.47C631.799 1214.07 600.895 1214.85 582.215 1213.93C581.191 1213.88 580.168 1213.82 579.118 1213.8C574.839 1213.61 570.586 1213.53 566.306 1213.5C560.114 1213.47 553.923 1213.61 547.731 1213.93C539.09 1214.36 527.893 1214.44 515.537 1213.21C473.786 1209.17 419.249 1190.67 409.208 1123.19C409.047 1122.03 408.885 1120.9 408.724 1119.74C406.113 1099.64 406.759 1079.53 409.639 1060.15C409.666 1059.88 409.719 1059.63 409.747 1059.39C413.003 1037.32 419.088 1016.11 426.329 996.835C427.379 993.981 428.509 991.181 429.613 988.409C436.262 971.907 443.664 956.968 450.664 944.235C465.871 916.482 479.224 899.254 479.224 899.254H650.803C650.803 899.254 664.155 916.482 679.391 944.208C694.519 971.827 711.558 1009.86 719.041 1051.59C722.595 1071.4 724.022 1092.05 722.083 1112.8H722.057Z" fill="#FF894B"/>
<path d="M503.558 1037.99C503.558 1065.37 481.35 1087.58 453.948 1087.58C434.539 1087.58 417.741 1076.4 409.585 1060.17C409.585 1059.9 409.666 1059.66 409.693 1059.39C412.95 1037.35 419.06 1016.13 426.275 996.833C434.162 991.53 443.691 988.435 453.92 988.435C481.297 988.435 503.531 1010.62 503.531 1038.02L503.558 1037.99Z" fill="#FFB48F"/>
<path d="M570.102 1166.72C585.905 1166.72 598.716 1153.91 598.716 1138.1C598.716 1122.3 585.905 1109.49 570.102 1109.49C554.299 1109.49 541.487 1122.3 541.487 1138.1C541.487 1153.91 554.299 1166.72 570.102 1166.72Z" fill="#FFB48F"/>
<path d="M636.159 1044.8C665.431 1044.8 689.162 1021.07 689.162 991.8C689.162 962.528 665.431 938.797 636.159 938.797C606.886 938.797 583.156 962.528 583.156 991.8C583.156 1021.07 606.886 1044.8 636.159 1044.8Z" fill="#FFB48F"/>
<path d="M722.056 1112.8C721.814 1115.12 721.571 1117.43 721.249 1119.75C721.114 1120.88 720.953 1122.03 720.791 1123.19C720.603 1124.54 720.36 1125.83 720.118 1127.15C712.662 1168.79 687.654 1190.95 659.848 1202.47C656.94 1195.12 655.352 1187.04 655.352 1178.64C655.352 1150.27 673.306 1126.1 698.448 1116.81C705.555 1114.2 713.227 1112.77 721.249 1112.77C721.49 1112.77 721.787 1112.77 722.056 1112.8Z" fill="#FFB48F"/>
<path d="M468.725 1178.64C479.919 1178.64 488.995 1169.57 488.995 1158.37C488.995 1147.18 479.919 1138.1 468.725 1138.1C457.531 1138.1 448.456 1147.18 448.456 1158.37C448.456 1169.57 457.531 1178.64 468.725 1178.64Z" fill="#FFB48F"/>
<path d="M546.816 1075.92C555.41 1075.92 562.375 1068.96 562.375 1060.36C562.375 1051.77 555.41 1044.8 546.816 1044.8C538.224 1044.8 531.258 1051.77 531.258 1060.36C531.258 1068.96 538.224 1075.92 546.816 1075.92Z" fill="#FFB48F"/>
<path d="M649.914 1127.15C657.526 1127.15 663.697 1120.98 663.697 1113.36C663.697 1105.75 657.526 1099.58 649.914 1099.58C642.303 1099.58 636.133 1105.75 636.133 1113.36C636.133 1120.98 642.303 1127.15 649.914 1127.15Z" fill="#FF9C9C"/>
<path d="M579.118 1213.8C568.647 1213.34 558.202 1213.39 547.731 1213.93C539.09 1214.36 527.865 1214.44 515.509 1213.21C519.897 1199.93 532.415 1190.32 547.22 1190.32C562.025 1190.32 574.865 1200.18 579.118 1213.8Z" fill="#FFB48F"/>
<path d="M833.311 701.455C833.311 737.015 826.393 770.958 813.795 802.023C788.491 864.663 740.172 915.538 679.364 944.207C675.594 946.01 671.772 947.706 667.896 949.294C643.077 959.631 616.347 966.335 588.405 968.73C581.137 969.376 573.761 969.726 566.304 969.726C565.874 969.753 565.417 969.753 564.986 969.753C524.07 969.753 485.307 960.6 450.636 944.234C389.8 915.538 341.481 864.663 316.177 802.023C303.579 770.958 296.661 737.015 296.661 701.455C296.661 691.522 297.199 681.724 298.249 672.087C310.874 556.121 397.418 462.337 509.749 438.837C527.569 435.095 546.035 433.13 564.986 433.13C565.417 433.13 565.874 433.13 566.304 433.157C571.474 433.157 576.588 433.318 581.648 433.668C712.312 441.636 817.698 543.173 831.723 672.114C832.772 681.75 833.311 691.549 833.311 701.455Z" fill="#CA784F"/>
<path d="M543.397 449.875C543.397 449.875 543.398 450.037 543.344 450.117V449.848C543.37 449.606 543.397 449.875 543.397 449.875Z" fill="#8E6233"/>
<path d="M622.889 399.16V398.756L622.808 398.11L622.673 396.791L622.539 395.418L622.269 393.48C622.054 392.242 621.919 390.869 621.596 389.765C621.274 388.608 620.978 387.477 620.681 386.346C620.278 385.216 619.874 384.112 619.47 383.008C617.64 378.594 615.028 374.502 611.905 371.164C608.81 367.853 605.311 365.269 601.866 363.385C594.947 359.67 588.459 358.243 582.941 357.463C577.423 356.736 572.739 356.709 568.917 356.844C568.001 356.87 567.113 356.924 566.306 357.005C560.33 357.382 557.046 358.109 556.75 358.136C551.608 358.943 548.081 363.762 548.889 368.903C549.67 374.045 554.488 377.571 559.63 376.763C559.953 376.763 562.349 376.521 566.306 376.629C567.086 376.656 567.947 376.683 568.836 376.736C571.824 376.925 575.43 377.302 579.253 378.217C583.076 379.132 587.087 380.613 590.289 382.82C593.466 385.081 595.459 387.8 596.535 391.488L596.885 392.941L597.1 394.53C597.235 395.095 597.1 395.445 597.208 395.929L597.261 396.575V399.16L597.235 400.156V399.752H597.181C597.181 399.752 597.154 399.698 597.074 399.563C596.966 399.375 597.181 399.267 597.074 399.106C597.074 399.052 597.1 398.998 597.154 398.944C597.154 398.917 597.046 398.917 597.046 398.917C596.885 398.944 595.162 400.048 592.632 400.882C590.128 401.744 586.979 402.551 583.614 403.251C578.284 404.355 572.443 405.27 566.306 406.32C564.609 406.616 562.887 406.912 561.138 407.235C553.062 408.77 544.61 410.519 535.511 414.207C530.935 416.172 526.143 418.676 521.486 422.552C516.856 426.374 512.441 431.893 509.939 438.272C509.857 438.461 509.804 438.649 509.75 438.838C509.157 440.534 508.646 442.31 508.242 444.087L507.946 445.406L507.838 446.079L507.596 447.425L507.488 448.071L507.435 448.421V448.582L507.381 448.663L507.246 450.063L507.166 452.055C507.138 453.428 507.003 454.693 507.112 456.093C507.22 461.503 508.431 467.344 510.691 472.675C512.953 478.032 516.264 482.796 519.898 486.537C523.505 490.307 527.382 493.159 531.042 495.34C538.472 499.728 545.175 501.962 550.989 503.577C556.803 505.138 561.756 505.919 565.874 506.484C566.037 506.511 566.171 506.511 566.306 506.538C570.209 507.022 573.25 507.211 575.458 507.292C576.669 507.346 577.584 507.372 578.177 507.372H579.55C580.196 507.372 580.842 507.346 581.487 507.292C593.332 506.161 602.027 495.663 600.896 483.818C599.793 471.975 589.294 463.28 577.449 464.41H577.288C577.288 464.41 577.288 464.437 577.127 464.437C576.804 464.464 576.319 464.518 575.7 464.545C574.328 464.626 572.201 464.706 569.482 464.653C568.486 464.626 567.436 464.572 566.306 464.491C564.368 464.357 562.268 464.168 560.088 463.818C556.642 463.28 553.034 462.338 550.181 461.072C547.22 459.753 545.712 458.488 544.717 457.142C544.206 456.389 543.667 455.446 543.452 453.831C543.317 453.481 543.398 452.97 543.317 452.566L543.236 451.893C543.236 451.893 543.21 451.974 543.21 452.028V451.866L543.317 450.52V450.117C543.344 450.251 543.263 450.359 543.156 450.44C543.182 449.928 543.317 449.309 544.313 448.152C545.282 447.048 547.086 445.648 549.454 444.329C553.923 441.906 559.872 439.807 566.306 437.896C566.898 437.707 567.517 437.546 568.136 437.357C572.47 436.119 576.992 434.961 581.65 433.669C584.691 432.835 587.787 431.947 590.963 430.977C595.001 429.685 599.147 428.259 603.561 426.186C607.868 424.059 612.848 421.448 617.424 415.849C617.962 415.122 618.527 414.449 619.012 413.669C619.496 412.834 619.954 412 620.412 411.138C621.328 409.469 621.811 407.504 622.323 405.647C622.78 403.79 622.808 401.986 622.889 400.183V399.833V399.16ZM543.182 452.405C543.182 452.405 543.182 452.593 543.156 452.701V452.405H543.182Z" fill="#512E2B"/>
<path d="M448.456 798.04C490.797 798.04 525.12 763.715 525.12 721.376C525.12 679.035 490.797 644.711 448.456 644.711C406.115 644.711 371.792 679.035 371.792 721.376C371.792 763.715 406.115 798.04 448.456 798.04Z" fill="#F6F6F6"/>
<path d="M448.456 771.228C475.989 771.228 498.309 748.908 498.309 721.375C498.309 693.842 475.989 671.521 448.456 671.521C420.922 671.521 398.602 693.842 398.602 721.375C398.602 748.908 420.922 771.228 448.456 771.228Z" fill="#512E2B"/>
<path d="M469.075 729.989C485.22 729.989 498.308 716.901 498.308 700.756C498.308 684.611 485.22 671.521 469.075 671.521C452.93 671.521 439.842 684.611 439.842 700.756C439.842 716.901 452.93 729.989 469.075 729.989Z" fill="#F6F6F6"/>
<path d="M681.518 798.04C723.859 798.04 758.182 763.715 758.182 721.376C758.182 679.035 723.859 644.711 681.518 644.711C639.178 644.711 604.854 679.035 604.854 721.376C604.854 763.715 639.178 798.04 681.518 798.04Z" fill="#F6F6F6"/>
<path d="M681.517 771.228C709.051 771.228 731.37 748.908 731.37 721.375C731.37 693.842 709.051 671.521 681.517 671.521C653.984 671.521 631.664 693.842 631.664 721.375C631.664 748.908 653.984 771.228 681.517 771.228Z" fill="#512E2B"/>
<path d="M702.137 729.989C718.282 729.989 731.371 716.901 731.371 700.756C731.371 684.611 718.282 671.521 702.137 671.521C685.992 671.521 672.904 684.611 672.904 700.756C672.904 716.901 685.992 729.989 702.137 729.989Z" fill="#F6F6F6"/>
<path d="M404.362 888.514C425.533 888.514 442.695 871.352 442.695 850.181C442.695 829.012 425.533 811.85 404.362 811.85C383.192 811.85 366.031 829.012 366.031 850.181C366.031 871.352 383.192 888.514 404.362 888.514Z" fill="#CA6948"/>
<path d="M725.61 888.514C746.78 888.514 763.943 871.352 763.943 850.181C763.943 829.012 746.78 811.85 725.61 811.85C704.439 811.85 687.278 829.012 687.278 850.181C687.278 871.352 704.439 888.514 725.61 888.514Z" fill="#CA6948"/>
<path d="M481.996 624.926C455.83 618.007 428.185 618.007 402.021 624.926C390.742 627.913 378.979 622.369 374.509 611.574C374.322 611.117 374.133 610.632 373.918 610.174C368.507 597.093 376.071 582.125 389.88 578.948C426.112 570.604 458.119 570.657 494.136 578.948C507.946 582.125 515.509 597.065 510.072 610.148C509.883 610.605 509.695 611.089 509.48 611.547C505.012 622.315 493.248 627.887 481.969 624.899L481.996 624.926Z" fill="#512E2B"/>
<path d="M727.952 624.926C701.787 618.007 674.142 618.007 647.977 624.926C636.698 627.913 624.934 622.369 620.466 611.574C620.277 611.117 620.089 610.632 619.874 610.174C614.463 597.093 622.026 582.125 635.836 578.948C672.069 570.604 704.075 570.657 740.092 578.948C753.901 582.125 761.466 597.065 756.028 610.148C755.839 610.605 755.651 611.089 755.435 611.547C750.967 622.315 739.204 627.887 727.925 624.899L727.952 624.926Z" fill="#512E2B"/>
<path d="M555.86 890.317C573.896 890.317 588.514 904.933 588.514 922.969C588.514 937.398 576.83 949.08 562.402 949.08C550.854 949.08 541.513 939.713 541.513 928.192C541.513 918.959 548.997 911.475 558.229 911.475C565.605 911.475 571.608 917.451 571.608 924.854" stroke="#CA6948" stroke-width="5.38372" stroke-miterlimit="10" stroke-linecap="round"/>
<path d="M598.715 730.016C598.715 757.554 583.615 771.228 564.987 771.228C546.359 771.228 531.258 757.527 531.258 730.016C531.258 702.505 546.359 671.521 564.987 671.521C583.615 671.521 598.715 702.478 598.715 730.016Z" fill="#CA6948"/>
<path d="M510.931 792.104L491.039 811.997C491.039 811.997 484.794 786.478 510.931 792.104Z" fill="#BA5E38"/>
<path d="M615.474 792.104L635.366 811.997C635.366 811.997 641.611 786.478 615.474 792.104Z" fill="#BA5E38"/>
<path d="M498.067 801.169C498.067 801.169 558.177 848.223 626.201 801.169" stroke="#BA5E38" stroke-width="10.7675" stroke-miterlimit="10"/>
</svg>
