<svg width="600" height="600" viewBox="0 0 600 600" fill="none" xmlns="http://www.w3.org/2000/svg">
<path d="M458.901 257.988L451.612 337.752L453.26 337.903L460.549 258.139L458.901 257.988Z" fill="#E0E0E0"/>
<path d="M449.301 258.031L447.651 258.182L454.94 337.946L456.589 337.795L449.301 258.031Z" fill="#E0E0E0"/>
<path d="M368.788 336.991L368.638 338.64L448.402 345.929L448.553 344.279L368.788 336.991Z" fill="#E0E0E0"/>
<path d="M448.354 340.935L368.597 348.232L368.748 349.881L448.505 342.585L448.354 340.935Z" fill="#E0E0E0"/>
<path d="M456.552 349.172L454.903 349.02L447.587 428.778L449.236 428.932L456.552 349.172Z" fill="#E0E0E0"/>
<path d="M451.562 349.172L453.211 349.02L460.526 428.778L458.878 428.932L451.562 349.172Z" fill="#E0E0E0"/>
<path d="M459.729 341.026L459.578 342.674L539.335 349.97L539.486 348.322L459.729 341.026Z" fill="#E0E0E0"/>
<path d="M539.413 337.038L459.648 344.326L459.799 345.975L539.563 338.687L539.413 337.038Z" fill="#E0E0E0"/>
<path d="M517.917 286.504L456.244 337.604L457.301 338.879L518.973 287.779L517.917 286.504Z" fill="#E0E0E0"/>
<path d="M509.837 278.586L458.642 340.186L459.915 341.244L511.111 279.644L509.837 278.586Z" fill="#E0E0E0"/>
<path d="M398.349 278.564L397.075 279.625L448.319 341.184L449.592 340.124L398.349 278.564Z" fill="#E0E0E0"/>
<path d="M390.241 286.492L389.183 287.765L450.766 338.977L451.825 337.703L390.241 286.492Z" fill="#E0E0E0"/>
<path d="M450.798 348.029L389.168 399.184L390.227 400.459L451.857 349.305L450.798 348.029Z" fill="#E0E0E0"/>
<path d="M448.304 345.706L397.116 407.314L398.39 408.372L449.578 346.764L448.304 345.706Z" fill="#E0E0E0"/>
<path d="M459.849 345.731L458.576 346.79L509.763 408.388L511.036 407.33L459.849 345.731Z" fill="#E0E0E0"/>
<path d="M457.375 347.943L456.316 349.216L517.891 400.435L518.95 399.162L457.375 347.943Z" fill="#E0E0E0"/>
<path d="M428.805 261.786L427.214 262.25L449.648 339.137L451.238 338.673L428.805 261.786Z" fill="#E0E0E0"/>
<path d="M418.223 265.753L416.744 266.497L452.754 338.036L454.233 337.292L418.223 265.753Z" fill="#E0E0E0"/>
<path d="M449.164 346.271L372.299 368.769L372.765 370.359L449.629 347.861L449.164 346.271Z" fill="#E0E0E0"/>
<path d="M447.817 343.219L376.318 379.309L377.064 380.786L448.563 344.697L447.817 343.219Z" fill="#E0E0E0"/>
<path d="M458.469 347.861L456.877 348.324L479.332 425.205L480.924 424.742L458.469 347.861Z" fill="#E0E0E0"/>
<path d="M455.246 348.967L453.767 349.714L489.904 421.188L491.383 420.44L455.246 348.967Z" fill="#E0E0E0"/>
<path d="M535.317 316.651L458.427 339.077L458.891 340.667L535.781 318.241L535.317 316.651Z" fill="#E0E0E0"/>
<path d="M531.028 306.107L459.514 342.164L460.259 343.643L531.773 307.585L531.028 306.107Z" fill="#E0E0E0"/>
<path d="M492.587 267.027L453.999 337.211L455.451 338.01L494.039 267.825L492.587 267.027Z" fill="#E0E0E0"/>
<path d="M482.016 262.667L457.067 338.77L458.642 339.286L483.591 263.183L482.016 262.667Z" fill="#E0E0E0"/>
<path d="M378.437 303.533L377.641 304.985L447.857 343.517L448.654 342.065L378.437 303.533Z" fill="#E0E0E0"/>
<path d="M373.726 313.836L373.208 315.409L449.279 340.462L449.797 338.889L373.726 313.836Z" fill="#E0E0E0"/>
<path d="M452.698 348.908L414.053 419.061L415.505 419.861L454.15 349.708L452.698 348.908Z" fill="#E0E0E0"/>
<path d="M449.59 347.726L424.45 423.772L426.023 424.293L451.164 348.246L449.59 347.726Z" fill="#E0E0E0"/>
<path d="M460.271 343.41L459.473 344.862L529.658 383.443L530.456 381.991L460.271 343.41Z" fill="#E0E0E0"/>
<path d="M458.769 346.426L458.25 348.001L534.314 373.078L534.833 371.504L458.769 346.426Z" fill="#E0E0E0"/>
<path d="M349.9 343.475C349.9 400.999 396.532 447.634 454.058 447.634C511.583 447.634 558.213 400.999 558.213 343.475C558.213 285.95 511.582 239.319 454.058 239.319C396.533 239.319 349.9 285.95 349.9 343.475ZM368.51 343.479C368.51 296.231 406.813 257.931 454.058 257.931C501.299 257.931 539.601 296.231 539.601 343.479C539.601 390.722 501.3 429.019 454.058 429.019C406.813 429.019 368.51 390.722 368.51 343.479Z" fill="#3F3F3F"/>
<path d="M357.807 343.479C357.807 396.634 400.902 439.728 454.059 439.728C507.216 439.728 550.309 396.635 550.309 343.479C550.309 290.316 507.215 247.222 454.059 247.222C400.902 247.223 357.807 290.316 357.807 343.479ZM369.513 343.479C369.513 296.781 407.366 258.928 454.059 258.928C500.753 258.928 538.601 296.78 538.601 343.479C538.601 390.172 500.753 428.024 454.059 428.024C407.366 428.024 369.513 390.172 369.513 343.479Z" fill="#E0E0E0"/>
<path d="M365.072 343.479C365.072 392.623 404.912 432.462 454.059 432.462C503.206 432.462 543.042 392.623 543.042 343.479C543.042 294.329 503.206 254.49 454.059 254.49C404.912 254.491 365.072 294.329 365.072 343.479ZM370.056 343.479C370.056 297.082 407.664 259.476 454.059 259.476C500.45 259.476 538.057 297.082 538.057 343.479C538.057 389.867 500.45 427.479 454.059 427.479C407.664 427.479 370.056 389.867 370.056 343.479Z" fill="#3F3F3F"/>
<path d="M150.704 258.015L143.416 337.771L145.064 337.922L152.352 258.166L150.704 258.015Z" fill="#E0E0E0"/>
<path d="M141.155 258.047L139.506 258.198L146.786 337.961L148.435 337.811L141.155 258.047Z" fill="#E0E0E0"/>
<path d="M60.6299 337.064L60.479 338.713L140.236 346.009L140.386 344.36L60.6299 337.064Z" fill="#E0E0E0"/>
<path d="M140.216 340.973L60.4595 348.269L60.6103 349.918L140.367 342.622L140.216 340.973Z" fill="#E0E0E0"/>
<path d="M148.439 349.173L146.787 349.02L139.472 428.778L141.121 428.932L148.439 349.173Z" fill="#E0E0E0"/>
<path d="M143.447 349.173L145.097 349.02L152.413 428.778L150.762 428.932L143.447 349.173Z" fill="#E0E0E0"/>
<path d="M151.658 340.976L151.508 342.624L231.271 349.904L231.422 348.256L151.658 340.976Z" fill="#E0E0E0"/>
<path d="M231.269 337.044L151.504 344.317L151.655 345.966L231.419 338.694L231.269 337.044Z" fill="#E0E0E0"/>
<path d="M209.869 286.532L148.189 337.632L149.245 338.908L210.926 287.808L209.869 286.532Z" fill="#E0E0E0"/>
<path d="M201.685 278.565L150.458 340.131L151.731 341.19L202.958 279.624L201.685 278.565Z" fill="#E0E0E0"/>
<path d="M90.2357 278.595L88.9619 279.655L140.197 341.223L141.471 340.163L90.2357 278.595Z" fill="#E0E0E0"/>
<path d="M82.1363 286.454L81.0752 287.728L142.619 338.987L143.68 337.713L82.1363 286.454Z" fill="#E0E0E0"/>
<path d="M142.66 348.032L81.0376 399.194L82.0967 400.47L143.719 349.307L142.66 348.032Z" fill="#E0E0E0"/>
<path d="M140.152 345.743L88.9321 407.319L90.2053 408.378L141.425 346.802L140.152 345.743Z" fill="#E0E0E0"/>
<path d="M151.785 345.741L150.511 346.8L201.706 408.399L202.98 407.34L151.785 345.741Z" fill="#E0E0E0"/>
<path d="M149.241 348.017L148.184 349.29L209.79 400.468L210.847 399.195L149.241 348.017Z" fill="#E0E0E0"/>
<path d="M120.684 261.77L119.094 262.234L141.527 339.121L143.118 338.657L120.684 261.77Z" fill="#E0E0E0"/>
<path d="M110.144 265.768L108.664 266.512L144.65 338.067L146.129 337.323L110.144 265.768Z" fill="#E0E0E0"/>
<path d="M141.105 346.335L64.2002 368.705L64.663 370.296L141.568 347.926L141.105 346.335Z" fill="#E0E0E0"/>
<path d="M139.691 343.246L68.1924 379.336L68.9381 380.813L140.436 344.724L139.691 343.246Z" fill="#E0E0E0"/>
<path d="M150.353 347.861L148.763 348.324L171.216 425.205L172.807 424.742L150.353 347.861Z" fill="#E0E0E0"/>
<path d="M147.156 348.923L145.678 349.67L181.815 421.144L183.293 420.396L147.156 348.923Z" fill="#E0E0E0"/>
<path d="M227.203 316.54L150.337 339.038L150.802 340.628L227.669 318.13L227.203 316.54Z" fill="#E0E0E0"/>
<path d="M222.908 306.143L151.402 342.216L152.148 343.695L223.654 307.621L222.908 306.143Z" fill="#E0E0E0"/>
<path d="M184.474 267.026L145.845 337.187L147.296 337.986L185.925 267.824L184.474 267.026Z" fill="#E0E0E0"/>
<path d="M173.899 262.641L148.951 338.744L150.525 339.26L175.474 263.157L173.899 262.641Z" fill="#E0E0E0"/>
<path d="M70.3148 303.539L69.5181 304.991L139.735 343.523L140.531 342.071L70.3148 303.539Z" fill="#E0E0E0"/>
<path d="M65.6451 313.874L65.1279 315.447L141.215 340.46L141.733 338.887L65.6451 313.874Z" fill="#E0E0E0"/>
<path d="M144.591 348.913L105.946 419.067L107.398 419.867L146.043 349.713L144.591 348.913Z" fill="#E0E0E0"/>
<path d="M141.425 347.712L116.292 423.758L117.866 424.278L142.998 348.232L141.425 347.712Z" fill="#E0E0E0"/>
<path d="M152.163 343.404L151.365 344.856L221.551 383.437L222.349 381.985L152.163 343.404Z" fill="#E0E0E0"/>
<path d="M150.692 346.52L150.175 348.095L226.28 373.06L226.796 371.485L150.692 346.52Z" fill="#E0E0E0"/>
<path d="M41.7856 343.475C41.7856 400.999 88.4167 447.634 145.943 447.634C203.467 447.634 250.099 400.999 250.099 343.475C250.099 285.95 203.467 239.319 145.943 239.319C88.4167 239.319 41.7856 285.95 41.7856 343.475ZM60.3957 343.479C60.3957 296.231 98.6987 257.931 145.943 257.931C193.186 257.931 231.488 296.231 231.488 343.479C231.488 390.722 193.187 429.019 145.943 429.019C98.6987 429.019 60.3957 390.722 60.3957 343.479Z" fill="#3F3F3F"/>
<path d="M49.6895 343.479C49.6895 396.634 92.7854 439.728 145.942 439.728C199.1 439.728 242.193 396.635 242.193 343.479C242.193 290.316 199.101 247.222 145.942 247.222C92.7854 247.223 49.6895 290.316 49.6895 343.479ZM61.3974 343.479C61.3974 296.781 99.2485 258.928 145.943 258.928C192.636 258.928 230.485 296.78 230.485 343.479C230.485 390.172 192.636 428.024 145.943 428.024C99.2485 428.024 61.3974 390.172 61.3974 343.479Z" fill="#E0E0E0"/>
<path d="M56.9556 343.479C56.9556 392.623 96.7976 432.462 145.943 432.462C195.09 432.462 234.928 392.623 234.928 343.479C234.928 294.329 195.09 254.49 145.943 254.49C96.7976 254.491 56.9556 294.329 56.9556 343.479ZM61.9416 343.479C61.9416 297.082 99.5476 259.476 145.944 259.476C192.336 259.476 229.944 297.082 229.944 343.479C229.944 389.867 192.336 427.479 145.944 427.479C99.5476 427.479 61.9416 389.867 61.9416 343.479Z" fill="#3F3F3F"/>
<path d="M408.187 179.669H398.072V215.592H408.187V179.669Z" fill="#3EBBDD"/>
<path d="M401.542 203.899H226.549V213.617H401.542V203.899Z" fill="#3EBBDD"/>
<path d="M209.673 170.007L271.004 354.129L280.744 350.656L219.414 166.531L209.673 170.007Z" fill="#3EBBDD"/>
<path d="M400.278 208.969L264.014 350.739L272.188 358.595L408.452 216.826L400.278 208.969Z" fill="#3EBBDD"/>
<path d="M406.6 209.576L398.473 212.725L450.69 347.533L458.818 344.385L406.6 209.576Z" fill="#3EBBDD"/>
<path d="M146.097 344.889L234.307 212.35L228.691 208.87L140.482 341.411L146.097 344.889Z" fill="#3EBBDD"/>
<path d="M225.892 185.98L219.414 166.531L209.673 170.006L216.14 189.423L225.892 185.98Z" fill="#E0E0E0"/>
<path d="M263.176 162.878C263.194 161.503 262.291 159.863 261.115 158.45C257.512 154.108 251.665 152.871 246.237 152.969C239.381 153.089 232.587 154.399 225.802 155.262C217.554 156.309 209.284 156.578 201.006 155.739C195.883 155.221 190.814 154.307 185.835 153.004C182.125 152.035 178.395 151.703 176.158 155.492C173.55 159.913 176.219 164.824 180.203 167.248C185.139 170.251 191.46 170.525 197.067 170.977C200.286 171.235 203.565 171.54 206.794 171.363C209.741 171.199 212.644 170.125 215.501 169.404C221.768 167.825 228.115 166.441 234.599 166.324C241.286 166.204 247.976 165.945 254.663 165.784C256.294 165.746 258.03 165.917 259.652 165.703C262.2 165.368 263.156 164.258 263.176 162.878Z" fill="#3F3F3F"/>
<path d="M249.403 157.974C241.737 158.11 234.144 159.572 226.559 160.537C217.339 161.71 208.095 162.01 198.841 161.073C193.115 160.493 187.452 159.471 181.882 158.015C179.644 157.43 177.398 157.059 175.412 157.506C175.578 156.83 175.837 156.156 176.229 155.495C178.463 151.706 182.196 152.038 185.904 153.007C190.886 154.31 195.954 155.224 201.075 155.742C209.354 156.581 217.623 156.312 225.872 155.265C232.659 154.402 239.451 153.092 246.31 152.972C251.735 152.874 257.582 154.111 261.188 158.453C261.94 159.359 262.577 160.36 262.937 161.323C259.059 158.705 254.095 157.889 249.403 157.974Z" fill="#E0E0E0"/>
<path d="M442.985 343.475C442.985 349.592 447.942 354.549 454.057 354.549C460.173 354.549 465.132 349.592 465.132 343.475C465.132 337.363 460.172 332.403 454.057 332.403C447.942 332.402 442.985 337.363 442.985 343.475Z" fill="#3F3F3F"/>
<path d="M444.711 343.475C444.711 348.638 448.897 352.823 454.057 352.823C459.22 352.823 463.404 348.637 463.404 343.475C463.404 338.313 459.22 334.13 454.057 334.13C448.896 334.13 444.711 338.312 444.711 343.475Z" fill="#F3F3F3"/>
<path d="M145.742 342.625L145.58 346.303L283.609 352.41L283.772 348.732L145.742 342.625Z" fill="#3F3F3F"/>
<path d="M141.099 350.459L140.665 352.901L275.279 376.841L275.713 374.399L141.099 350.459Z" fill="#545352"/>
<path d="M279.119 322.829L142.836 333.711L143.034 336.182L279.316 325.299L279.119 322.829Z" fill="#545352"/>
<path d="M288.468 302.421L280.47 346.177L285.642 347.122L293.639 303.366L288.468 302.421Z" fill="#3F3F3F"/>
<path d="M279.708 350.435L271.684 394.188L276.854 395.136L284.879 351.384L279.708 350.435Z" fill="#3F3F3F"/>
<path d="M285.52 302.98C285.52 303.207 285.746 303.391 286.024 303.391H301.917C302.196 303.391 302.423 303.207 302.423 302.98V300.122C302.423 299.894 302.196 299.711 301.917 299.711H286.024C285.746 299.711 285.52 299.893 285.52 300.122V302.98Z" fill="#3F3F3F"/>
<path d="M262.455 395.497C262.455 395.721 262.682 395.908 262.961 395.908H278.854C279.131 395.908 279.36 395.721 279.36 395.497V392.638C279.36 392.411 279.132 392.23 278.854 392.23H262.961C262.682 392.23 262.455 392.411 262.455 392.638V395.497Z" fill="#3F3F3F"/>
<path d="M258.085 337.032C251.285 351.094 257.173 368.012 271.241 374.811C285.308 381.612 302.224 375.724 309.023 361.658C315.825 347.589 309.933 330.674 295.866 323.874C281.8 317.074 264.884 322.963 258.085 337.032Z" fill="#3F3F3F"/>
<path d="M262.055 338.95C256.313 350.821 261.286 365.103 273.16 370.843C285.032 376.582 299.312 371.612 305.055 359.738C310.795 347.864 305.822 333.58 293.945 327.843C282.073 322.102 267.793 327.075 262.055 338.95Z" fill="#F3F3F3"/>
<path d="M280.188 349.344C280.188 351.201 281.694 352.706 283.553 352.706C285.411 352.706 286.918 351.2 286.918 349.344C286.918 347.485 285.411 345.978 283.553 345.978C281.694 345.978 280.188 347.485 280.188 349.344Z" fill="#677E82"/>
<path d="M134.869 343.475C134.869 349.592 139.828 354.549 145.943 354.549C152.057 354.549 157.017 349.592 157.017 343.475C157.017 337.363 152.057 332.403 145.943 332.403C139.828 332.402 134.869 337.363 134.869 343.475Z" fill="#3F3F3F"/>
<path d="M136.595 343.475C136.595 348.638 140.779 352.823 145.943 352.823C151.106 352.823 155.288 348.637 155.288 343.475C155.288 338.313 151.105 334.13 145.943 334.13C140.779 334.13 136.595 338.312 136.595 343.475Z" fill="#F3F3F3"/>
<path d="M450.72 228.068H432.613V218.434H450.72C458.048 218.434 464.01 212.432 464.01 205.054V202.054C464.01 194.676 458.008 188.674 450.63 188.674H396.091V179.04H450.63C463.32 179.04 473.644 189.364 473.644 202.054V205.054C473.643 217.744 463.36 228.068 450.72 228.068Z" fill="#3F3F3F"/>
<path d="M398.48 178.045H411.614V189.669H398.48C396.77 189.669 395.388 188.724 395.388 187.56V180.154C395.388 178.989 396.77 178.045 398.48 178.045Z" fill="#3F3F3F"/>
</svg>
