<svg width="1130" height="1571" viewBox="0 0 1130 1571" fill="none" xmlns="http://www.w3.org/2000/svg">
<path d="M564.524 1356.72C564.524 1356.72 572.058 1392.4 520.931 1423.41C493.311 1440.16 502.138 1464.58 542.855 1447.16C583.572 1429.74 619.336 1405.81 619.336 1405.81L606.808 1355.14L564.524 1356.72Z" fill="#4A354B"/>
<mask id="mask0_25_2712" style="mask-type:luminance" maskUnits="userSpaceOnUse" x="504" y="1355" width="116" height="99">
<path d="M564.524 1356.72C564.524 1356.72 572.058 1392.4 520.931 1423.41C493.311 1440.16 502.138 1464.58 542.855 1447.16C583.572 1429.74 619.336 1405.81 619.336 1405.81L606.808 1355.14L564.524 1356.72Z" fill="white"/>
</mask>
<g mask="url(#mask0_25_2712)">
<path opacity="0.13" d="M574.645 1303.8C553.031 1309.91 537.208 1332.23 538.602 1354.64C539.093 1362.57 541.69 1370.63 547.292 1376.26C552.685 1381.66 560.326 1384.29 567.9 1385.29C595.036 1388.85 621.572 1373.18 639.647 1352.63C646.313 1345.05 652.245 1336.59 655.403 1327.01C658.562 1317.42 658.715 1306.54 654.205 1297.51C648.839 1286.75 637.922 1280.1 627.555 1274.02" fill="#4F3B54"/>
</g>
<path d="M704.087 1360.97C704.087 1360.97 715.523 1387.21 709.363 1411.92C704.834 1430.08 781.923 1474.52 800.304 1467.19C818.685 1459.86 788.154 1434.11 765.77 1407.99C741.737 1379.95 737.788 1353.89 737.788 1353.89L704.087 1360.97Z" fill="#4A354B"/>
<mask id="mask1_25_2712" style="mask-type:luminance" maskUnits="userSpaceOnUse" x="704" y="1353" width="102" height="115">
<path d="M704.087 1360.97C704.087 1360.97 715.523 1387.21 709.363 1411.92C704.834 1430.08 781.923 1474.52 800.304 1467.19C818.685 1459.86 788.154 1434.11 765.77 1407.99C741.737 1379.95 737.788 1353.89 737.788 1353.89L704.087 1360.97Z" fill="white"/>
</mask>
<g mask="url(#mask1_25_2712)">
<path opacity="0.13" d="M682.729 1328.66C671.573 1339.55 665.496 1357.29 672.693 1371.11C676.279 1378 682.631 1383.06 689.4 1386.86C708.169 1397.4 732.207 1399.22 751.334 1389.34C757.018 1386.41 762.321 1382.39 765.684 1376.95C769.785 1370.32 770.653 1362.17 770.382 1354.37C769.875 1339.81 765.7 1325.39 758.338 1312.82" fill="#4F3B54"/>
</g>
<path d="M759.241 617.063C787.478 646.557 844.58 710.656 843.492 734.599C841.414 780.278 711.649 855.022 711.649 855.022C711.649 855.022 709.571 876.824 708.534 890.318C707.497 903.816 695.04 914.195 691.925 920.425C688.81 926.655 682.254 919.565 682.254 919.565C682.254 919.565 675.316 903.812 681.547 883.051C657.67 853.981 679.598 819.703 691.929 817.648C704.386 815.57 783.286 754.323 782.249 739.788C781.362 727.363 719.545 678.911 719.545 678.911L759.241 617.063Z" fill="#BF7049"/>
<path d="M489.697 889.411C443.854 1130.05 547.503 1363.84 547.503 1363.84C547.503 1363.84 583.38 1376.28 617.266 1361.36C612.615 1345.19 548.987 1044.24 598.818 986.413C628.717 1005.07 663.109 1290.47 696.995 1378.15C732.873 1385.61 762.771 1371.31 762.771 1371.31C766.197 1372.65 724.898 1001.34 700.982 893.143C681.93 806.975 513.519 764.356 489.697 889.411Z" fill="#1D92C3"/>
<mask id="mask2_25_2712" style="mask-type:luminance" maskUnits="userSpaceOnUse" x="477" y="811" width="286" height="570">
<path d="M489.697 889.411C443.854 1130.05 547.503 1363.84 547.503 1363.84C547.503 1363.84 583.38 1376.28 617.266 1361.36C612.615 1345.19 548.987 1044.24 598.818 986.413C628.717 1005.07 663.109 1290.47 696.995 1378.15C732.873 1385.61 762.771 1371.31 762.771 1371.31C766.197 1372.65 724.898 1001.34 700.982 893.143C681.93 806.975 513.519 764.356 489.697 889.411Z" fill="white"/>
</mask>
<g mask="url(#mask2_25_2712)">
<path opacity="0.13" d="M454.864 857.76C453.992 875.657 462.642 893.091 475.189 905.878C487.736 918.669 503.885 927.331 520.4 934.288C573.024 956.455 632.526 962.866 688.199 950.162C718.946 943.146 749.284 929.766 770.269 906.227C775.38 900.496 779.925 894.136 782.644 886.955C789.42 869.046 783.653 848.147 771.817 833.102C759.977 818.052 742.893 808.031 725.392 800.261C675.593 778.148 618.93 771.804 565.474 782.355" fill="#4F3B54"/>
</g>
<mask id="mask3_25_2712" style="mask-type:luminance" maskUnits="userSpaceOnUse" x="477" y="811" width="286" height="570">
<path d="M489.697 889.411C443.854 1130.05 547.503 1363.84 547.503 1363.84C547.503 1363.84 583.38 1376.28 617.266 1361.36C612.615 1345.19 548.987 1044.24 598.818 986.413C628.717 1005.07 663.109 1290.47 696.995 1378.15C732.873 1385.61 762.771 1371.31 762.771 1371.31C766.197 1372.65 724.898 1001.34 700.982 893.143C681.93 806.975 513.519 764.356 489.697 889.411Z" fill="white"/>
</mask>
<g mask="url(#mask3_25_2712)">
<path opacity="0.13" d="M462.239 947.354C464.054 952.787 469.432 956.134 474.61 958.585C487.172 964.529 500.945 967.911 514.832 968.465C511.827 975.52 509.925 983.039 509.206 990.676C486.729 990.648 464.423 980.984 449.028 964.607" fill="#4F3B54"/>
</g>
<mask id="mask4_25_2712" style="mask-type:luminance" maskUnits="userSpaceOnUse" x="477" y="811" width="286" height="570">
<path d="M489.697 889.411C443.854 1130.05 547.503 1363.84 547.503 1363.84C547.503 1363.84 583.38 1376.28 617.266 1361.36C612.615 1345.19 548.987 1044.24 598.818 986.413C628.717 1005.07 663.109 1290.47 696.995 1378.15C732.873 1385.61 762.771 1371.31 762.771 1371.31C766.197 1372.65 724.898 1001.34 700.982 893.143C681.93 806.975 513.519 764.356 489.697 889.411Z" fill="white"/>
</mask>
<g mask="url(#mask4_25_2712)">
<path opacity="0.13" d="M731.16 950.941C729.604 955.836 724.764 958.805 720.235 961.225C706.348 968.642 691.9 975.002 677.055 980.234C676.088 986.732 678.347 993.626 682.963 998.293C699.061 992.951 715.156 987.612 731.254 982.269C739.869 979.41 749.356 975.815 753.3 967.64" fill="#4F3B54"/>
</g>
<path d="M482.375 697.039C482.375 697.039 372.311 861.813 369.943 867.297C369.432 870.903 369.848 911.758 364.188 918.99C358.405 922.368 353.962 921.999 353.962 921.999L353.381 898.28C353.381 898.28 347.457 933.493 342.13 937.382C336.803 941.271 327.379 936.432 327.379 936.432L337.53 896.308C337.53 896.308 316.341 930.441 312.994 930.107C309.647 929.773 301.884 924.065 301.884 924.065L321.832 889.692C321.832 889.692 297.135 916.77 294.998 914.735C292.861 912.7 286.493 904.781 286.493 904.781C286.493 904.781 316.698 867.874 319.939 864.04C323.18 860.206 301.743 864.162 297.626 866.35C291.981 860.862 295.01 853.316 295.01 853.316C295.01 853.316 316.168 839.85 335.094 840.934C341.761 823.661 440.252 654.99 440.252 654.99" fill="#BF7049"/>
<path d="M605.784 528.985C605.784 528.985 543.787 527.798 493.681 573.021C452.116 610.537 414.141 671.159 414.141 671.159L483.157 711.711L504.386 677.751C504.386 677.751 496.848 692.148 513.013 736.915C528.486 779.765 495.371 832.967 485.02 891.275C509.269 945.372 674.668 952.832 703.27 896.873C685.239 784.951 709.41 682.386 709.41 682.386L733.039 704.77L794.674 637.579C794.674 637.579 749.027 582.657 702.649 554.26C659.402 527.771 605.784 528.985 605.784 528.985Z" fill="#E05B71"/>
<mask id="mask5_25_2712" style="mask-type:luminance" maskUnits="userSpaceOnUse" x="414" y="528" width="381" height="408">
<path d="M605.784 528.985C605.784 528.985 543.787 527.798 493.681 573.021C452.116 610.537 414.141 671.159 414.141 671.159L483.157 711.711L504.386 677.751C504.386 677.751 496.848 692.148 513.013 736.915C528.486 779.765 495.371 832.967 485.02 891.275C509.269 945.372 674.668 952.832 703.27 896.873C685.239 784.951 709.41 682.386 709.41 682.386L733.039 704.77L794.674 637.579C794.674 637.579 749.027 582.657 702.649 554.26C659.402 527.771 605.784 528.985 605.784 528.985Z" fill="white"/>
</mask>
<g mask="url(#mask5_25_2712)">
<path opacity="0.13" d="M599.024 723.469C625.575 722.475 649.322 738.491 664.301 757.276C634.033 743.508 598.01 739.43 564.568 745.782C561.021 746.458 529.355 760.859 526.758 758.255C524.024 755.517 548.949 739.827 550.992 738.291C562.196 729.876 584.41 724.015 599.024 723.469Z" fill="#4F3B54"/>
</g>
<path d="M674.628 550.539C672.031 547.369 655.399 539.336 639.233 534.363C633.494 496.996 627.37 459.241 627.37 459.241L566.418 453.337C566.418 453.337 564.587 507.945 570.181 537.973C560.376 541.642 535.934 551.714 535.934 561.052C535.934 572.727 558.624 624.75 586.975 628.45C607.791 631.161 679.408 556.377 674.628 550.539Z" fill="#BF7049"/>
<path d="M662.269 469.55C662.269 469.55 724.231 510.491 749.011 416.388C786.318 428.515 811.503 387.476 794.226 356.167C835.014 325.84 801.548 295.51 781.675 301.783C803.104 283.945 808.702 245.702 769.124 228.575C779.581 208.705 785.442 171.539 733.152 167.356C739.681 142.171 700.508 122.584 683.368 142.819C667.683 112.493 620.621 107.26 609.115 133.407C592.38 100.986 547.413 89.4843 526.494 123.995C497.213 107.26 453.286 118.766 458.515 164.783C418.772 170.011 403.086 217.073 425.049 240.081C393.674 265.179 385.393 321.083 427.222 339.908C396.443 358.563 399.24 443.439 474.79 451.83C485.255 468.564 662.269 469.55 662.269 469.55Z" fill="#3A201C"/>
<path d="M697.64 345.846C704.118 351.157 707.956 362.569 708.97 377.277C712.823 433.208 659.386 521.321 583.923 524.581C489.058 528.674 450.057 450.241 461.846 389.694C473.635 329.143 585.636 253.982 697.64 345.846Z" fill="#BF7049"/>
<path d="M716.048 423.095C716.048 423.095 670.577 407.81 674.446 370.18C660.902 373.708 641.555 354.891 645.424 324.321C629.946 345.487 599.954 347.636 568.994 314.744C569.961 334.091 533.199 351.505 520.621 325.386C511.916 358.313 483.49 372.015 446.729 361.432C450.598 292.054 521.587 256.117 631.875 260.82C742.167 265.522 716.048 423.095 716.048 423.095Z" fill="#512E2B"/>
<path d="M684.886 384.961C681.315 406.752 697.496 433.362 697.496 433.362C697.496 433.362 732.917 428.672 726.789 389.762C723.014 365.795 688.798 361.077 684.886 384.961Z" fill="#BF7049"/>
<path opacity="0.13" d="M712.466 389.502C714.206 393.124 715.094 397.146 715.047 401.165C714.984 406.343 713.012 411.913 708.53 414.506C706.982 415.401 705.12 415.896 703.388 415.452C702.162 415.142 701.093 414.392 700.131 413.567C694.117 408.421 691.449 399.676 693.574 392.051C694.388 389.129 695.939 386.284 698.473 384.615C703.937 381.005 709.94 384.238 712.466 389.502Z" fill="#471F18"/>
<path opacity="0.4" d="M632.171 456.147C628.514 456.339 624.711 455.247 622.024 452.757C609.493 441.16 629.13 425.29 641.52 430.456C658.133 437.389 645.936 455.416 632.171 456.147Z" fill="#844B32"/>
<path opacity="0.4" d="M497.494 449.375C496.205 452.851 492.426 455.055 488.722 455.039C485.013 455.024 481.494 453.056 479.03 450.286C477.628 448.707 476.509 446.829 476.088 444.763C475.668 442.697 475.998 440.426 477.243 438.721C484.031 429.427 501.532 438.493 497.494 449.375Z" fill="#844B32"/>
<path d="M629.386 386.953C633.184 381.897 617.624 346.468 590.943 366.278C598.057 366.51 619.066 365.391 629.386 386.953Z" fill="#512E2B"/>
<path d="M479.42 390.3C475.83 385.095 492.816 350.325 518.672 371.204C511.55 371.145 490.604 369.173 479.42 390.3Z" fill="#512E2B"/>
<path d="M626.863 403.826C627.225 408.65 625.441 413.494 622.487 417.324C617.267 424.093 608.133 427.742 599.754 426.025C591.379 424.309 584.296 417.112 583.11 408.643C581.923 400.173 586.991 391.114 594.973 388.05C606.511 383.623 625.807 389.736 626.863 403.826Z" fill="white"/>
<path d="M609.757 404.214C609.914 406.708 609.148 409.211 607.875 411.19C605.632 414.691 601.704 416.576 598.105 415.688C594.503 414.801 591.463 411.08 590.952 406.704C590.441 402.328 592.621 397.646 596.051 396.062C601.008 393.772 609.305 396.931 609.757 404.214Z" fill="#512E2B"/>
<path d="M485.715 403.826C485.353 408.65 487.137 413.494 490.091 417.324C495.312 424.093 504.449 427.742 512.824 426.025C521.199 424.309 528.282 417.112 529.468 408.643C530.655 400.173 525.587 391.114 517.605 388.05C506.067 383.623 486.771 389.736 485.715 403.826Z" fill="white"/>
<path d="M595.351 452.003C600.717 456.253 586.752 482.542 557.05 482.393C527.344 482.243 527.442 462.441 527.442 462.441L595.351 452.003Z" fill="white"/>
<path d="M522.779 403.508C522.936 406.002 522.166 408.504 520.897 410.484C518.65 413.984 514.726 415.87 511.127 414.982C507.529 414.094 504.485 410.374 503.974 405.998C503.463 401.622 505.643 396.939 509.073 395.352C514.03 393.066 522.327 396.224 522.779 403.508Z" fill="#512E2B"/>
<path d="M606.775 404.203C604.968 403.991 603.114 403.099 602.312 401.469C600.172 397.117 606.347 392.96 610.039 395.365C614.078 398 611.56 404.769 606.775 404.203Z" fill="#512E2B"/>
<path d="M518.694 403.15C516.887 402.938 515.033 402.046 514.232 400.416C512.087 396.063 518.266 391.907 521.955 394.311C525.997 396.947 523.483 403.72 518.694 403.15Z" fill="white"/>
<path opacity="0.4" d="M542.263 428.824C550.167 420.826 547.861 406.441 553.455 408.617C557.65 410.251 560.738 422.582 561.229 429.449C561.539 433.801 559.654 438.959 555.011 439.71C547.268 440.951 533.986 437.2 542.263 428.824Z" fill="#844B32"/>
<path d="M712.245 317.75C712.245 317.75 606.159 195.563 462.523 317.75C492.371 244.067 639.493 171.318 712.245 317.75Z" fill="#96664D"/>
<path d="M713.681 437.806C713.681 443.589 708.99 448.279 703.208 448.279C697.425 448.279 692.735 443.589 692.735 437.806C692.735 432.024 697.425 427.333 703.208 427.333C708.99 427.333 713.681 432.024 713.681 437.806Z" fill="url(#paint0_linear_25_2712)"/>
<defs>
<linearGradient id="paint0_linear_25_2712" x1="710.042" y1="414.086" x2="699.253" y2="451.533" gradientUnits="userSpaceOnUse">
<stop stop-color="#FF894B"/>
<stop offset="1" stop-color="#E7E123"/>
</linearGradient>
</defs>
</svg>
