<svg width="1130" height="1571" viewBox="0 0 1130 1571" fill="none" xmlns="http://www.w3.org/2000/svg">
<path d="M407.565 778.642C407.565 778.642 358.182 922.094 347.986 945.614C325.251 965.995 322.902 988.731 329.174 1002.84C337.011 1004.41 358.961 999.706 358.961 999.706L368.367 967.565C368.367 967.565 369.152 981.674 371.5 984.812C373.855 987.946 384.825 979.325 384.825 973.837C384.825 968.349 377.768 943.265 377.768 943.265L460.077 800.593C460.087 800.593 453.815 795.105 407.565 778.642Z" fill="#CA784F"/>
<path d="M717.912 769.741C717.912 769.741 767.295 913.193 777.491 936.713C800.226 957.094 802.575 979.83 796.302 993.938C788.461 995.508 766.515 990.805 766.515 990.805L757.11 958.664C757.11 958.664 756.325 972.773 753.976 975.911C751.627 979.045 740.652 970.424 740.652 964.936C740.652 959.448 747.709 934.364 747.709 934.364L665.4 791.697C665.39 791.686 671.662 786.199 717.912 769.741Z" fill="#CA784F"/>
<path d="M476.815 1082.24C476.815 1082.24 513.695 1313.36 522.301 1325.66C530.906 1337.95 553.034 1203.95 556.723 1096.99C530.288 1070.57 476.815 1082.24 476.815 1082.24Z" fill="#CA784F"/>
<mask id="mask0_25_2680" style="mask-type:luminance" maskUnits="userSpaceOnUse" x="476" y="1079" width="81" height="248">
<path d="M476.815 1082.24C476.815 1082.24 513.695 1313.36 522.301 1325.66C530.906 1337.95 553.034 1203.95 556.723 1096.99C530.288 1070.57 476.815 1082.24 476.815 1082.24Z" fill="white"/>
</mask>
<g mask="url(#mask0_25_2680)">
<path opacity="0.13" d="M443.022 1056.96C433.268 1065.45 433.704 1078.5 440.922 1088.26C448.146 1098.02 460.919 1104.95 474.3 1110.17C496.843 1118.97 522.847 1123.84 548.139 1121.22C573.431 1118.6 597.709 1107.83 609.511 1091.23C621.312 1074.65 618.558 1052.42 600.412 1039.25C585.835 1028.67 563.89 1025.06 543.436 1026.3C522.987 1027.54 503.531 1033.06 484.439 1038.57" fill="#CA784F"/>
</g>
<path d="M509.018 1274.19C507.267 1272.64 513.986 1320.14 513.986 1320.14C513.986 1320.14 483.352 1331.32 484.179 1347.46C485.005 1363.61 522.264 1340.01 534.269 1332.97C540.156 1329.52 540.063 1275.02 540.063 1275.02C540.063 1275.02 527.648 1290.75 509.018 1274.19Z" fill="#FF894B"/>
<mask id="mask1_25_2680" style="mask-type:luminance" maskUnits="userSpaceOnUse" x="484" y="1274" width="57" height="79">
<path d="M509.018 1274.19C507.267 1272.64 513.986 1320.14 513.986 1320.14C513.986 1320.14 483.352 1331.32 484.179 1347.46C485.005 1363.61 522.264 1340.01 534.269 1332.97C540.156 1329.52 540.063 1275.02 540.063 1275.02C540.063 1275.02 527.648 1290.75 509.018 1274.19Z" fill="white"/>
</mask>
<g mask="url(#mask1_25_2680)">
<path opacity="0.13" d="M530.448 1296.34C535.603 1296.22 540.836 1295.69 545.597 1293.71C550.357 1291.73 554.633 1288.16 556.509 1283.36C559.908 1274.66 554.254 1264.42 546.038 1259.99C532.537 1252.71 503.478 1254.11 497.19 1270.95C489.697 1291.03 516.293 1296.65 530.448 1296.34Z" fill="#4F3B54"/>
</g>
<path d="M508.13 1270.41C506.779 1270.75 504.753 1274.98 506.27 1282.75C507.793 1290.52 539.892 1289.17 542.428 1284.61C546.653 1277.01 539.726 1269.74 539.726 1269.74C539.726 1269.74 535.163 1274.47 522.998 1273.8C510.833 1273.11 508.13 1270.41 508.13 1270.41Z" fill="#FF894B"/>
<path d="M660.832 1082.24C660.832 1082.24 623.952 1313.36 615.346 1325.66C606.741 1337.95 584.613 1203.95 580.924 1096.99C607.354 1070.57 660.832 1082.24 660.832 1082.24Z" fill="#CA784F"/>
<mask id="mask2_25_2680" style="mask-type:luminance" maskUnits="userSpaceOnUse" x="580" y="1079" width="81" height="248">
<path d="M660.832 1082.24C660.832 1082.24 623.952 1313.36 615.346 1325.66C606.741 1337.95 584.613 1203.95 580.924 1096.99C607.354 1070.57 660.832 1082.24 660.832 1082.24Z" fill="white"/>
</mask>
<g mask="url(#mask2_25_2680)">
<path opacity="0.13" d="M530.339 1057.79C520.585 1066.29 521.022 1079.34 528.24 1089.1C535.463 1098.86 548.236 1105.79 561.618 1111.01C584.161 1119.8 610.164 1124.67 635.456 1122.05C660.748 1119.44 685.027 1108.66 696.828 1092.08C708.63 1075.49 705.875 1053.26 687.729 1040.09C673.152 1029.51 651.207 1025.9 630.753 1027.14C610.305 1028.39 590.849 1033.9 571.756 1039.41" fill="#CA784F"/>
</g>
<path d="M628.629 1274.19C630.38 1272.64 623.661 1320.14 623.661 1320.14C623.661 1320.14 654.295 1331.32 653.468 1347.46C652.642 1363.61 615.382 1340.01 603.378 1332.97C597.491 1329.52 597.584 1275.02 597.584 1275.02C597.584 1275.02 609.999 1290.75 628.629 1274.19Z" fill="#FF894B"/>
<mask id="mask3_25_2680" style="mask-type:luminance" maskUnits="userSpaceOnUse" x="597" y="1274" width="57" height="79">
<path d="M628.629 1274.19C630.38 1272.64 623.661 1320.14 623.661 1320.14C623.661 1320.14 654.295 1331.32 653.468 1347.46C652.642 1363.61 615.382 1340.01 603.378 1332.97C597.491 1329.52 597.584 1275.02 597.584 1275.02C597.584 1275.02 609.999 1290.75 628.629 1274.19Z" fill="white"/>
</mask>
<g mask="url(#mask3_25_2680)">
<path opacity="0.13" d="M607.198 1296.34C602.043 1296.22 596.81 1295.69 592.05 1293.71C587.29 1291.74 583.013 1288.16 581.137 1283.36C577.738 1274.66 583.392 1264.42 591.608 1259.99C605.109 1252.71 634.168 1254.11 640.456 1270.95C647.95 1291.03 621.353 1296.65 607.198 1296.34Z" fill="#4F3B54"/>
</g>
<path d="M629.518 1270.41C630.869 1270.75 632.895 1274.98 631.378 1282.75C629.855 1290.52 597.751 1289.17 595.22 1284.61C590.995 1277.01 597.922 1269.74 597.922 1269.74C597.922 1269.74 602.485 1274.47 614.65 1273.8C626.815 1273.12 629.518 1270.41 629.518 1270.41Z" fill="#FF894B"/>
<path d="M572.978 654.963C491.532 653.945 415.791 698.469 396.912 786.167C429.339 801.84 463.829 801.056 463.829 801.056L404.603 1078.45C404.603 1078.45 627.387 1158.52 741.904 1052.25C736.344 1028.76 668.669 801.716 668.669 801.716C668.669 801.716 698.57 801.513 729.142 772.511C703.507 713.093 640.145 655.805 572.978 654.963Z" fill="#FDC7AB"/>
<mask id="mask4_25_2680" style="mask-type:luminance" maskUnits="userSpaceOnUse" x="396" y="654" width="346" height="454">
<path d="M572.978 654.963C491.532 653.945 415.791 698.469 396.912 786.167C429.339 801.84 463.829 801.056 463.829 801.056L404.603 1078.45C404.603 1078.45 627.387 1158.52 741.904 1052.25C736.344 1028.76 668.669 801.716 668.669 801.716C668.669 801.716 698.57 801.513 729.142 772.511C703.507 713.093 640.145 655.805 572.978 654.963Z" fill="white"/>
</mask>
<g mask="url(#mask4_25_2680)">
<path d="M405.054 919.439C405.054 919.439 594.803 999.202 739.217 913.562C724.942 895.093 714.029 902.649 714.029 902.649C714.029 902.649 548.626 960.581 411.773 890.058C405.896 911.883 405.054 919.439 405.054 919.439Z" fill="#FF894B"/>
</g>
<path d="M531.926 579.64C531.926 579.64 528.236 669.385 544.221 685.365C560.2 701.344 602.002 701.344 610.608 682.907C619.213 664.464 609.376 585.787 609.376 585.787" fill="#CA784F"/>
<path d="M782.974 374.627C790.832 311.384 722.725 284.476 684.743 303.314C694.351 265.056 663.187 247.201 624.613 266.304C625.959 250.106 631.504 228.924 650.237 219.186C623.246 218.573 608.862 232.583 601.187 247.549C575.411 216.297 520.416 203.336 479.108 241.417C396.388 236.693 360.038 299.26 377.987 340.132C356.037 340.158 328.692 349.761 326.691 396.551C345.534 360.601 369.439 354.293 387.528 356.137C328.547 371.712 331.259 450.258 354.675 490.345C332.408 513.22 337.646 563.004 374.324 576.458C392.662 642.393 471.251 622.209 471.251 622.209C471.251 622.209 696.534 501.112 724.04 546.858C807.861 564.35 822.271 398.848 782.974 374.627Z" fill="#3A201C"/>
<path d="M439.253 443.202C431.022 449.557 426.147 463.204 424.858 480.789C419.963 547.68 470.391 668.449 582.518 666.931C716.289 665.123 753.866 568.05 738.884 495.636C723.908 423.226 581.578 333.335 439.253 443.202Z" fill="#CA784F"/>
<path d="M417.802 543.778C417.802 543.778 475.583 524.353 470.667 476.533C487.878 481.018 512.469 457.109 507.547 418.259C527.216 445.156 565.328 447.89 604.667 406.088C603.435 430.679 650.153 452.806 666.137 419.61C677.201 461.448 713.317 478.867 760.035 465.418C755.119 377.258 664.911 331.59 524.758 337.566C384.611 343.547 417.802 543.778 417.802 543.778Z" fill="#512E2B"/>
<path d="M439.929 456.494C444.466 484.187 420.26 517.965 420.26 517.965C420.26 517.965 378.89 512.041 386.68 462.595C391.481 432.138 434.956 426.141 439.929 456.494Z" fill="#CA784F"/>
<path opacity="0.13" d="M404.884 462.263C402.675 466.862 401.543 471.981 401.605 477.084C401.688 483.663 404.193 490.74 409.888 494.035C411.853 495.173 414.222 495.802 416.42 495.241C417.979 494.846 419.336 493.89 420.562 492.845C428.206 486.308 431.595 475.192 428.898 465.506C427.863 461.79 425.894 458.178 422.672 456.053C415.724 451.47 408.09 455.575 404.884 462.263Z" fill="#FAEBE3"/>
<path opacity="0.4" d="M524.801 581.203C530.819 581.525 537.071 579.722 541.488 575.632C562.098 556.561 529.801 530.458 509.425 538.955C482.101 550.351 502.16 580.003 524.801 581.203Z" fill="#CA523D"/>
<path opacity="0.4" d="M680.44 564.668C683.261 572.281 691.534 577.109 699.651 577.077C707.768 577.046 715.485 572.733 720.88 566.663C723.951 563.208 726.404 559.092 727.329 554.566C728.254 550.034 727.526 545.066 724.798 541.335C709.92 520.975 671.595 540.836 680.44 564.668Z" fill="#CA523D"/>
<path d="M524.842 484.261C522.893 476.466 558.625 442.683 580.066 479.064C571.622 475.817 547.582 464.119 524.842 484.261Z" fill="#512E2B"/>
<path d="M709.28 488.807C711.228 481.012 675.496 447.229 654.055 483.611C662.5 480.363 686.539 468.671 709.28 488.807Z" fill="#512E2B"/>
<path d="M630.039 537.787C628.482 535.862 625.225 536.214 623.617 537.787C623.262 538.133 622.898 538.472 622.537 538.811C622.311 539.022 622.075 539.223 621.843 539.424C621.802 539.458 621.767 539.483 621.733 539.515C620.668 540.275 619.572 540.969 618.391 541.537C618.344 541.559 618.052 541.688 617.898 541.757C617.729 541.817 617.468 541.911 617.424 541.926C616.84 542.131 616.25 542.306 615.65 542.454C615.053 542.602 614.447 542.721 613.841 542.831C613.791 542.84 613.499 542.884 613.326 542.913C613.087 542.928 612.563 542.972 612.582 542.972C611.966 543.007 611.347 543.01 610.732 542.988C610.424 542.975 610.12 542.95 609.812 542.928C609.718 542.922 609.617 542.909 609.532 542.897C608.348 542.712 607.168 542.467 606.024 542.102C604.869 541.735 603.898 541.358 602.89 540.9C602.206 540.589 601.543 540.253 600.849 539.957C600.233 539.694 599.643 539.606 599.049 539.483C597.231 539.109 595.702 540.579 596.11 542.423C596.518 544.257 597.448 545.56 598.836 546.888C600.136 548.132 601.596 549.149 603.211 549.944C606.558 551.59 610.217 552.453 613.96 552.353C617.679 552.255 621.315 551.15 624.584 549.401C626.242 548.515 627.781 547.369 629.173 546.109C630.133 545.24 630.969 544.257 631.374 543.004C632.008 541.06 631.248 539.279 630.039 537.787Z" fill="#BA5E38"/>
<path d="M643.169 587.392C640.424 583.999 634.684 584.619 631.85 587.392C631.225 588.001 630.583 588.598 629.946 589.196C629.548 589.567 629.133 589.921 628.723 590.275C628.651 590.336 628.59 590.38 628.529 590.436C626.653 591.775 624.722 592.998 622.64 594C622.557 594.039 622.043 594.266 621.772 594.388C621.473 594.493 621.013 594.659 620.936 594.686C619.906 595.046 618.866 595.356 617.809 595.616C616.757 595.876 615.689 596.087 614.621 596.281C614.532 596.297 614.017 596.375 613.713 596.424C613.292 596.452 612.368 596.53 612.401 596.53C611.316 596.59 610.226 596.596 609.141 596.557C608.599 596.535 608.062 596.491 607.519 596.452C607.353 596.441 607.176 596.419 607.027 596.397C604.94 596.07 602.859 595.638 600.845 594.996C598.808 594.349 597.097 593.685 595.321 592.877C594.114 592.329 592.946 591.736 591.723 591.216C590.638 590.751 589.598 590.596 588.552 590.38C585.347 589.722 582.652 592.312 583.371 595.561C584.091 598.793 585.729 601.09 588.175 603.431C590.467 605.623 593.041 607.416 595.885 608.817C601.786 611.717 608.234 613.239 614.831 613.062C621.384 612.89 627.793 610.942 633.555 607.859C636.477 606.298 639.189 604.278 641.641 602.059C643.335 600.526 644.807 598.793 645.521 596.585C646.639 593.159 645.3 590.021 643.169 587.392Z" fill="#BA5E38"/>
<path d="M690.082 510.134C689.382 506.856 687.671 503.137 684.97 501.049C683.808 500.151 682.423 499.651 681.01 499.557C680.768 499.513 680.551 499.419 680.297 499.4C677.891 499.205 675.457 500.465 674.01 502.336C672.788 503.916 672.166 505.703 671.877 507.663C671.529 510.021 671.444 512.37 671.604 514.71C671.45 516.293 671.463 517.894 671.73 519.521C672.276 522.859 674.318 526.502 677.458 528.016C681.456 529.944 686.659 529.341 688.562 524.828C688.952 523.905 689.162 522.906 689.278 521.879C689.486 521.339 689.674 520.796 689.828 520.259C690.789 516.974 690.795 513.466 690.082 510.134Z" fill="#512E2B"/>
<path d="M560.903 502.46C560.203 499.182 558.491 495.463 555.791 493.375C554.629 492.477 553.244 491.978 551.831 491.883C551.589 491.839 551.372 491.745 551.118 491.726C548.712 491.532 546.278 492.791 544.831 494.663C543.609 496.242 542.987 498.029 542.698 499.989C542.35 502.347 542.265 504.696 542.425 507.036C542.271 508.619 542.284 510.22 542.551 511.847C543.097 515.185 545.138 518.828 548.279 520.342C552.277 522.27 557.48 521.667 559.383 517.154C559.773 516.231 559.983 515.232 560.099 514.205C560.307 513.665 560.495 513.122 560.649 512.585C561.61 509.3 561.616 505.792 560.903 502.46Z" fill="#512E2B"/>
</svg>
