<svg width="1130" height="1571" viewBox="0 0 1130 1571" fill="none" xmlns="http://www.w3.org/2000/svg">
<path d="M299.87 801.846C299.87 801.846 250.4 820.566 257.083 879.394C269.116 882.069 277.138 884.74 277.138 884.74C277.138 884.74 281.15 831.26 306.552 829.92C331.959 828.588 333.294 864.689 333.294 884.744C333.294 904.8 334.63 1344.69 334.63 1344.69C334.63 1344.69 347.999 1354.05 356.022 1344.69C357.357 1324.63 354.686 904.8 353.346 878.062C352.015 851.32 357.361 801.846 299.87 801.846Z" fill="url(#paint0_linear_25_2772)"/>
<path d="M502.552 1153.02C502.552 1153.02 519.667 1292.46 519.916 1307.82C510.887 1332.44 526.129 1340.61 532.535 1341.08C550.14 1342.39 581.471 1322.41 581.471 1322.41L586.657 1158.62" fill="#CA784F"/>
<path d="M607.495 1157.22L619.007 1323.9L634.394 1351.66L670.578 1346.28L690.205 1155.82" fill="#CA784F"/>
<path d="M493.865 639.097L422.371 789.094C422.371 789.094 299.008 779.279 280.786 798.905C258.355 822.735 261.159 843.766 261.159 843.766C261.159 843.766 275.178 854.981 286.393 853.581C297.608 852.177 311.627 838.162 311.627 838.162C311.627 838.162 307.424 854.985 311.627 861.992C325.646 864.796 339.665 831.151 339.665 831.151C339.665 831.151 443.401 864.796 471.439 854.981C499.477 845.166 559.756 675.542 559.756 675.542L493.865 639.097Z" fill="url(#paint1_linear_25_2772)"/>
<mask id="mask0_25_2772" style="mask-type:luminance" maskUnits="userSpaceOnUse" x="261" y="639" width="299" height="224">
<path d="M493.865 639.097L422.371 789.094C422.371 789.094 299.008 779.279 280.786 798.905C258.355 822.735 261.159 843.766 261.159 843.766C261.159 843.766 275.178 854.981 286.393 853.581C297.608 852.177 311.627 838.162 311.627 838.162C311.627 838.162 307.424 854.985 311.627 861.992C325.646 864.796 339.665 831.151 339.665 831.151C339.665 831.151 443.401 864.796 471.439 854.981C499.477 845.166 559.756 675.542 559.756 675.542L493.865 639.097Z" fill="white"/>
</mask>
<g mask="url(#mask0_25_2772)">
<path opacity="0.13" d="M459.406 624.537C433.594 656.811 412.287 693.713 404.337 734.266C396.387 774.819 403.081 819.406 428.375 852.085C453.674 884.764 499.064 902.682 538.397 890.011C583.916 875.346 609.699 827.441 649.979 801.665" fill="#CA784F"/>
</g>
<path d="M605.95 501.061C618.978 499.381 733.027 505.02 753.48 662.052C773.929 819.085 769.85 1195.57 769.85 1195.57C769.85 1195.57 563.777 1276.88 402.682 1186.66C402.682 1151.03 450.707 786.963 453.631 773.771C434.005 773.771 431.654 732.239 444.273 676.168C464.413 586.635 496.603 515.172 605.95 501.061Z" fill="url(#paint2_linear_25_2772)"/>
<path d="M526.932 512.931C521.529 470.746 502.612 431.364 502.612 431.364L578.668 396.909C578.668 396.909 603.553 458.067 606.834 492.278C658.951 535.458 621.338 608.079 571.64 618.256C521.938 628.432 503.162 555.686 526.932 512.931Z" fill="#BF7049"/>
<path d="M583.521 463.855C583.521 463.855 635.577 497.191 656.399 420.57C687.746 430.442 708.901 397.029 694.389 371.538C728.656 346.845 700.538 322.153 683.843 327.259C701.849 312.735 706.55 281.6 673.298 267.654C682.087 251.477 687.008 221.213 643.074 217.807C648.561 197.302 615.646 181.358 601.246 197.828C588.065 173.135 548.528 168.875 538.861 190.166C524.802 163.769 487.021 154.403 469.444 182.501C444.84 168.879 407.937 178.245 412.329 215.709C378.94 219.965 365.76 258.284 384.211 277.016C357.85 297.452 350.891 342.967 386.036 358.293C360.176 373.48 362.527 442.587 426.003 449.422C434.796 463.052 583.521 463.855 583.521 463.855Z" fill="#C3C3C3"/>
<path d="M645.329 355.546C652.264 361.234 656.371 373.452 657.454 389.195C661.578 449.074 604.371 543.408 523.582 546.894C422.02 551.278 389.357 471.019 394.263 394.619C398.503 328.711 525.423 257.197 645.329 355.546Z" fill="#CA784F"/>
<path d="M658.69 431.765C658.69 431.765 614.808 417.012 618.542 380.696C605.47 384.101 586.798 365.943 590.532 336.437C575.595 356.865 546.65 358.939 516.771 327.195C517.706 345.871 482.223 362.677 470.086 337.467C461.682 369.244 434.25 382.472 398.771 372.256C402.506 305.298 471.02 270.614 577.46 275.154C683.9 279.691 658.69 431.765 658.69 431.765Z" fill="#A9A9A9"/>
<path d="M628.454 394.927C624.086 421.581 642.754 454.677 642.754 454.677C642.754 454.677 681.931 461.111 679.709 400.799C678.618 371.141 633.24 365.714 628.454 394.927Z" fill="#CA784F"/>
<path opacity="0.13" d="M663.047 404.829C665.225 409.366 666.34 414.408 666.28 419.438C666.199 425.924 663.728 432.899 658.113 436.148C656.175 437.271 653.841 437.889 651.671 437.335C650.135 436.946 648.795 436.004 647.592 434.973C640.055 428.527 636.717 417.573 639.377 408.022C640.396 404.36 642.341 400.798 645.514 398.704C652.361 394.188 659.882 398.239 663.047 404.829Z" fill="#853E31"/>
<path opacity="0.4" d="M562.668 470.412C558.753 470.621 554.682 469.45 551.806 466.786C538.389 454.372 559.411 437.381 572.676 442.912C590.465 450.329 577.405 469.63 562.668 470.412Z" fill="#9F4F34"/>
<path opacity="0.4" d="M438.878 457.53C437.346 461.657 432.866 464.276 428.461 464.256C424.061 464.24 419.878 461.902 416.953 458.613C415.289 456.739 413.961 454.509 413.456 452.054C412.954 449.6 413.347 446.904 414.828 444.882C422.898 433.844 443.672 444.61 438.878 457.53Z" fill="#9F4F34"/>
<path d="M569.305 397.065C571.319 393.499 543.02 374.266 523.273 389.853C530.51 389.019 551.231 385.477 569.305 397.065Z" fill="#512E2B"/>
<path d="M419.481 400.579C417.131 397.253 443.432 375.457 464.586 388.902C457.302 388.794 436.344 387.342 419.481 400.579Z" fill="#512E2B"/>
<path d="M569.558 417.614C569.944 422.78 568.038 427.966 564.873 432.066C559.282 439.314 550.818 435.263 541.677 434.781C530.326 434.184 523.992 431.837 522.72 422.768C521.453 413.703 526.876 404.004 535.424 400.723C547.77 395.985 568.427 402.528 569.558 417.614Z" fill="white"/>
<path d="M551.244 418.031C551.408 420.703 550.59 423.382 549.23 425.5C546.828 429.247 542.624 431.264 538.769 430.314C534.915 429.363 531.658 425.38 531.112 420.695C530.567 416.01 532.897 410.996 536.571 409.299C541.878 406.852 550.759 410.234 551.244 418.031Z" fill="#512E2B"/>
<path d="M418.452 417.614C418.066 422.78 419.972 427.966 423.137 432.066C428.728 439.314 438.319 437.216 447.288 435.379C456.257 433.542 464.022 431.837 465.29 422.772C466.557 413.707 461.134 404.008 452.586 400.727C440.24 395.985 419.583 402.528 418.452 417.614Z" fill="white"/>
<path d="M458.128 417.274C458.296 419.945 457.474 422.624 456.114 424.746C453.712 428.493 449.508 430.51 445.653 429.56C441.799 428.609 438.541 424.626 437.996 419.941C437.45 415.256 439.781 410.242 443.455 408.545C448.762 406.095 457.642 409.476 458.128 417.274Z" fill="#512E2B"/>
<path d="M548.051 418.02C546.117 417.791 544.132 416.84 543.273 415.091C540.979 410.43 547.593 405.982 551.544 408.557C555.868 411.377 553.177 418.625 548.051 418.02Z" fill="white"/>
<path d="M453.756 416.892C451.822 416.663 449.837 415.712 448.978 413.963C446.684 409.303 453.299 404.854 457.249 407.429C461.573 410.249 458.878 417.497 453.756 416.892Z" fill="white"/>
<path opacity="0.4" d="M475.613 446.298C487.33 434.441 483.912 413.11 492.207 416.335C498.433 418.754 503.005 437.04 503.731 447.221C504.193 453.675 501.397 461.324 494.514 462.431C483.034 464.276 463.339 458.717 475.613 446.298Z" fill="#9F4F34"/>
<path opacity="0.4" d="M514.117 462.571C514.117 462.571 543.35 461.4 550.077 490.051C553.001 485.667 543.35 456.723 514.117 462.571Z" fill="#9F4F34"/>
<path opacity="0.4" d="M462.369 462.864C462.369 462.864 435.181 465.203 444.828 492.097C435.474 485.667 438.691 462.571 462.369 462.864Z" fill="#9F4F34"/>
<g opacity="0.4">
<path d="M576.096 417.549C576.096 417.549 590.127 405.564 600.07 411.408C592.172 414.625 576.096 417.549 576.096 417.549Z" fill="#9F4F34"/>
<path d="M577.557 422.52C577.557 422.52 598.314 416.09 601.531 426.029C589.249 425.737 577.557 422.52 577.557 422.52Z" fill="#9F4F34"/>
<path d="M577.849 428.659C577.849 428.659 593.929 430.412 594.511 437.139C583.404 433.629 577.849 428.659 577.849 428.659Z" fill="#9F4F34"/>
<path d="M412.376 414.917C412.376 414.917 405.068 406.437 397.467 413.164C407.114 415.795 412.376 414.917 412.376 414.917Z" fill="#9F4F34"/>
<path d="M412.963 421.347C412.963 421.347 401.27 414.624 396.008 424.564C402.438 423.397 412.963 421.347 412.963 421.347Z" fill="#9F4F34"/>
<path d="M415.246 427.573C415.246 427.573 402.306 423.758 399.506 434.653C405.486 432.017 415.246 427.573 415.246 427.573Z" fill="#9F4F34"/>
</g>
<path d="M514.639 485.127C514.771 484.261 494.363 483.216 475.462 488.344C482.774 495.067 506.863 514.716 514.639 485.127Z" fill="#AA3C27"/>
<path d="M730.398 716.276C730.398 716.276 727.783 914.74 727.783 938.666C727.783 962.593 730.971 1007.25 726.186 1020.01C721.401 1032.77 707.049 1048.72 707.049 1048.72C707.049 1048.72 696.624 1063.21 691.839 1063.21C687.053 1063.21 663.985 1029.58 671.959 997.678C663.985 1007.25 653.304 1022.68 653.304 1022.68L639.79 1018.17C639.79 1018.17 636.87 992.893 667.174 954.614C665.578 937.07 658.622 733.821 658.622 733.821L730.398 716.276Z" fill="#CA784F"/>
<mask id="mask1_25_2772" style="mask-type:luminance" maskUnits="userSpaceOnUse" x="639" y="716" width="92" height="348">
<path d="M730.398 716.276C730.398 716.276 727.783 914.74 727.783 938.666C727.783 962.593 730.971 1007.25 726.186 1020.01C721.401 1032.77 707.049 1048.72 707.049 1048.72C707.049 1048.72 696.624 1063.21 691.839 1063.21C687.053 1063.21 663.985 1029.58 671.959 997.678C663.985 1007.25 653.304 1022.68 653.304 1022.68L639.79 1018.17C639.79 1018.17 636.87 992.893 667.174 954.614C665.578 937.07 658.622 733.821 658.622 733.821L730.398 716.276Z" fill="white"/>
</mask>
<g mask="url(#mask1_25_2772)">
<path opacity="0.13" d="M614.464 619.062C593.899 638.022 577.955 661.961 568.389 688.246C564.778 698.161 562.075 709.176 565.553 719.14C568.272 726.929 574.425 733.01 580.899 738.124C613.353 763.776 659.297 771.232 698.197 757.169C737.101 743.106 767.654 707.997 776.206 667.524C780.546 646.991 778.889 623.791 765.46 607.666C750.302 589.471 724.594 584.774 701.017 582.588" fill="#CA784F"/>
</g>
<path d="M713.014 939.99C713.014 946.143 718.003 951.133 724.157 951.133C730.31 951.133 735.3 946.143 735.3 939.99C735.3 933.837 730.31 928.847 724.157 928.847C718.003 928.847 713.014 933.837 713.014 939.99Z" fill="url(#paint3_linear_25_2772)"/>
<path d="M695.786 944.687C695.786 950.84 700.776 955.83 706.929 955.83C713.082 955.83 718.072 950.84 718.072 944.687C718.072 938.534 713.082 933.544 706.929 933.544C700.772 933.548 695.786 938.534 695.786 944.687Z" fill="url(#paint4_linear_25_2772)"/>
<path d="M676.469 944.687C676.469 950.84 681.455 955.83 687.612 955.83C693.765 955.83 698.755 950.84 698.755 944.687C698.755 938.534 693.765 933.544 687.612 933.544C681.455 933.548 676.469 938.534 676.469 944.687Z" fill="url(#paint5_linear_25_2772)"/>
<path d="M659.237 941.032C659.237 947.185 664.227 952.175 670.38 952.175C676.533 952.175 681.523 947.185 681.523 941.032C681.523 934.879 676.533 929.889 670.38 929.889C664.227 929.893 659.237 934.879 659.237 941.032Z" fill="url(#paint6_linear_25_2772)"/>
<path d="M467.486 1360.02C459.793 1384.43 474.422 1385.79 484.245 1384.28C499.568 1381.92 573.822 1351.32 579.181 1343.28C582.719 1337.98 585.073 1324.42 581.844 1310.31C566.971 1342.38 512.279 1336.08 519.663 1308.17C516.932 1307.35 472.986 1342.57 467.486 1360.02Z" fill="url(#paint7_linear_25_2772)"/>
<path d="M617.725 1315.94C617.725 1315.94 612.233 1346.75 633.332 1380.7C654.431 1414.63 688.938 1415.13 685.573 1374.4C683.13 1344.87 673.857 1313.74 673.857 1313.74C673.857 1313.74 672.761 1338.88 648.911 1340.71C625.061 1342.55 617.725 1315.94 617.725 1315.94Z" fill="url(#paint8_linear_25_2772)"/>
<path d="M657.323 454.886C657.323 460.79 652.534 465.58 646.629 465.58C640.725 465.58 635.936 460.79 635.936 454.886C635.936 448.982 640.725 444.192 646.629 444.192C652.538 444.192 657.323 448.982 657.323 454.886Z" fill="url(#paint9_linear_25_2772)"/>
<defs>
<linearGradient id="paint0_linear_25_2772" x1="359.129" y1="1281.38" x2="315.124" y2="945.055" gradientUnits="userSpaceOnUse">
<stop offset="0.0139" stop-color="#82372A"/>
<stop offset="1" stop-color="#5B372A"/>
</linearGradient>
<linearGradient id="paint1_linear_25_2772" x1="399.048" y1="844.016" x2="418.675" y2="694.019" gradientUnits="userSpaceOnUse">
<stop stop-color="#CA784F"/>
<stop offset="1" stop-color="#8D482A"/>
</linearGradient>
<linearGradient id="paint2_linear_25_2772" x1="875.472" y1="1340.7" x2="447.819" y2="707.64" gradientUnits="userSpaceOnUse">
<stop stop-color="#B75AA4"/>
<stop offset="1" stop-color="#E985D3"/>
</linearGradient>
<linearGradient id="paint3_linear_25_2772" x1="697.922" y1="839.195" x2="715.351" y2="906.157" gradientUnits="userSpaceOnUse">
<stop stop-color="#FF894B"/>
<stop offset="1" stop-color="#E7E123"/>
</linearGradient>
<linearGradient id="paint4_linear_25_2772" x1="680.64" y1="843.693" x2="698.069" y2="910.655" gradientUnits="userSpaceOnUse">
<stop stop-color="#FF894B"/>
<stop offset="1" stop-color="#E7E123"/>
</linearGradient>
<linearGradient id="paint5_linear_25_2772" x1="662.548" y1="848.402" x2="679.976" y2="915.364" gradientUnits="userSpaceOnUse">
<stop stop-color="#FF894B"/>
<stop offset="1" stop-color="#E7E123"/>
</linearGradient>
<linearGradient id="paint6_linear_25_2772" x1="647.302" y1="852.369" x2="664.731" y2="919.331" gradientUnits="userSpaceOnUse">
<stop stop-color="#FF894B"/>
<stop offset="1" stop-color="#E7E123"/>
</linearGradient>
<linearGradient id="paint7_linear_25_2772" x1="678.903" y1="1166.57" x2="497.596" y2="1380.14" gradientUnits="userSpaceOnUse">
<stop stop-color="#FF894B"/>
<stop offset="1" stop-color="#E7E123"/>
</linearGradient>
<linearGradient id="paint8_linear_25_2772" x1="732.602" y1="1259.26" x2="596.708" y2="1419.34" gradientUnits="userSpaceOnUse">
<stop stop-color="#FF894B"/>
<stop offset="1" stop-color="#E7E123"/>
</linearGradient>
<linearGradient id="paint9_linear_25_2772" x1="653.61" y1="430.668" x2="642.593" y2="468.903" gradientUnits="userSpaceOnUse">
<stop stop-color="#FF894B"/>
<stop offset="1" stop-color="#E7E123"/>
</linearGradient>
</defs>
</svg>
