<svg width="600" height="600" viewBox="0 0 600 600" fill="none" xmlns="http://www.w3.org/2000/svg">
<path d="M279.243 242.33C282.472 232.668 284.726 222.231 286.174 211.957C284.718 211.494 283.273 210.982 281.857 210.362C280.688 209.85 279.557 209.281 278.449 208.677C276.874 218.187 273.548 227.102 267.493 233.695C255.102 247.19 217.825 260.857 199.646 258.569C171.37 255.016 148.319 215.882 143.792 203.533C136.596 183.902 133.104 142.277 188.098 122.113C230.442 106.588 253.754 122.723 265.688 139.988C268.044 137.21 270.726 134.736 273.677 132.611C260.188 113.995 234.801 98.2283 185.901 116.157C118.621 140.826 126.787 186.745 134.992 209.122C140.155 223.2 166.848 254.928 196.239 272.762L245.917 319.674L271.664 310.233L279.243 242.33ZM255.642 303.905L254.051 304.491L234.313 285.537C238.768 285.524 243.086 284.84 247.195 283.334C251.307 281.827 255.045 279.557 258.45 276.687L255.642 303.905Z" fill="#3878BD"/>
<path d="M311.521 422.427C308.635 420.298 305.867 418.014 303.262 415.624C303.33 419.074 303.54 422.421 303.819 425.287C303.846 425.566 303.89 425.846 303.919 426.124C311.647 432.279 320.347 437.486 329.464 440.906C325.488 436.789 321.173 432.989 316.979 428.819C315.16 427.005 313.257 424.886 311.521 422.427Z" fill="#E0569A"/>
<path d="M295.774 408.832L290.55 406.767L286.01 408.431C286.483 409.011 286.961 409.587 287.447 410.156C290.2 413.376 293.116 416.4 295.806 418.991C295.725 417.165 295.669 415.288 295.669 413.374C295.669 411.868 295.708 410.347 295.774 408.832Z" fill="#E0569A"/>
<path d="M379.21 431.115C379.125 429.115 378.522 427.254 377.661 425.538C376.358 422.964 374.462 420.65 372.283 418.516C370.101 416.388 367.623 414.454 365.091 412.786C356.001 406.785 347.198 404.179 338.924 403.036C337.051 402.776 335.21 402.594 333.389 402.451C334.662 404.596 335.429 407.103 334.32 410.118C335.507 410.229 336.694 410.357 337.88 410.523C345.369 411.578 352.846 413.787 360.933 419.1C363.832 421.005 366.652 423.352 368.632 425.653C369.625 426.801 370.405 427.934 370.906 428.936C371.414 429.941 371.634 430.795 371.656 431.425V431.422L371.659 431.592C371.649 432.314 371.498 432.742 371.188 433.241C370.951 433.609 370.589 434.004 370.069 434.404C369.295 435.008 368.174 435.596 366.866 436.08C365.557 436.568 364.072 436.957 362.594 437.249C360.013 437.762 357.16 438.036 354.119 438.036C348.133 438.037 341.421 436.976 334.577 434.702L334.576 434.701C334.263 434.598 333.952 434.482 333.642 434.374C335.406 436.151 337.161 438.005 338.864 440.004C340.066 441.416 341.233 442.912 342.363 444.48C346.406 445.221 350.355 445.595 354.119 445.596C357.611 445.596 360.948 445.285 364.068 444.665C367.216 444.027 370.618 443.059 373.599 441.158C375.082 440.201 376.478 438.976 377.533 437.354C378.59 435.743 379.231 433.72 379.22 431.593C379.22 431.433 379.217 431.275 379.21 431.119L379.21 431.115Z" fill="#E0569A"/>
<path d="M261.844 192.513L261.638 192.155L261.533 192.143C261.124 191.418 260.736 190.679 260.369 189.931L260.335 189.919C260.106 189.819 259.916 189.642 259.8 189.412C253.739 177.379 253.357 163.406 258.756 151.075C260.538 147.008 262.887 143.289 265.688 139.988C253.754 122.723 230.442 106.588 188.098 122.113C133.104 142.277 136.596 183.902 143.792 203.533C148.319 215.881 171.37 255.016 199.645 258.569C217.825 260.857 255.102 247.189 267.493 233.695C273.548 227.102 276.874 218.187 278.449 208.677C271.533 204.907 265.834 199.382 261.844 192.513Z" fill="#E0569A"/>
<path d="M415.478 124.021C370.21 106.127 344.414 118.714 329.774 135.575C332.311 137.891 334.561 140.519 336.495 143.415C349.671 127.553 373.706 114.335 413.156 129.928C468.452 151.791 462.446 192.731 454.759 212.175C449.924 224.407 426.553 263.211 398.198 266.055C379.967 267.886 343.043 253.289 330.994 239.487C324.158 231.66 320.999 220.76 319.966 209.479C317.546 210.673 315.01 211.67 312.366 212.426C312.356 212.43 312.343 212.427 312.331 212.43C313.419 224.264 315.552 236.545 319.008 247.816L324.885 315.891L350.387 325.972L401.223 280.319C431.054 263.227 458.532 232.176 464.045 218.234C472.807 196.066 483.127 150.765 415.478 124.021ZM342.637 310.589L341.059 309.967L338.935 282.685C342.267 285.64 345.949 288.004 350.017 289.611C354.087 291.22 358.391 292.013 362.843 292.136L342.637 310.589Z" fill="#E0569A"/>
<path d="M323.932 315.513C323.231 315.236 322.453 315.338 321.849 315.79C321.248 316.239 320.927 316.953 320.99 317.702L321.388 322.304L321.272 322.761C314.791 348.549 307.376 367.132 300.203 376.03C298.065 378.681 295.948 380.482 293.884 381.346C292.265 382.022 290.462 382.303 288.709 382.571C285.202 383.113 280.837 383.787 278.975 388.493C276.392 395.026 279.606 402.442 286.14 405.023L290.55 406.767L295.773 408.832L303.247 411.787L306.926 413.242L317.16 417.288L317.714 417.507C324.247 420.087 331.661 416.874 334.242 410.342C334.272 410.266 334.291 410.194 334.319 410.118C335.428 407.103 334.661 404.596 333.388 402.451C332.723 401.33 331.924 400.305 331.184 399.359C330.097 397.969 328.972 396.533 328.255 394.934C324.263 386.044 331.577 363.631 348.325 333.456L348.554 333.044L351.944 330.001C352.217 329.773 352.423 329.486 352.558 329.147C352.995 328.042 352.454 326.787 351.344 326.351L350.386 325.972L324.884 315.891L323.932 315.513Z" fill="#3878BD"/>
<path d="M275.103 317.193L274.999 316.732L275.506 312.207C275.558 311.854 275.521 311.501 275.396 311.159C274.987 310.044 273.747 309.468 272.628 309.879L271.663 310.232L245.917 319.673L244.951 320.027C244.246 320.286 243.734 320.879 243.581 321.616C243.431 322.352 243.667 323.1 244.213 323.616L247.572 326.786L247.79 327.206C263.777 357.793 270.529 380.378 266.317 389.167C265.559 390.748 264.399 392.156 263.269 393.524C261.011 396.261 258.201 399.667 259.944 404.421C262.361 411.014 269.695 414.413 276.288 411.994L286.01 408.431L290.55 406.767L286.14 405.022C279.606 402.441 276.392 395.025 278.975 388.493C280.837 383.786 285.202 383.112 288.709 382.57C290.462 382.302 292.265 382.022 293.884 381.345C295.948 380.482 298.065 378.68 300.203 376.029C291.548 371.131 282.445 349.836 275.103 317.193Z" fill="#003F6D"/>
<path d="M413.155 129.928C373.705 114.335 349.671 127.553 336.494 143.415C336.994 144.165 337.489 144.918 337.946 145.704L338.156 146.063L338.391 146.093C338.803 146.823 339.192 147.564 339.561 148.314L339.665 148.351C339.892 148.449 340.084 148.628 340.199 148.857C346.262 160.891 346.643 174.865 341.243 187.195C336.947 197.006 329.396 204.824 319.966 209.479C320.999 220.761 324.158 231.66 330.994 239.487C343.043 253.289 379.967 267.886 398.198 266.055C426.553 263.211 449.923 224.407 454.759 212.175C462.446 192.731 468.452 151.791 413.155 129.928Z" fill="#003F6D"/>
<path d="M297.885 132.876C302.209 135.556 307.277 138.193 312.539 140.496C321.12 144.252 329.578 146.886 336.356 147.915C337.361 148.066 338.356 148.184 339.316 148.262L339.56 148.313C339.191 147.563 338.802 146.823 338.391 146.092L338.155 146.063C335.405 145.742 332.224 145.103 328.758 144.156C324.025 142.865 318.765 141.008 313.353 138.639C304.558 134.789 297.026 130.309 292.023 126.241C291.694 125.974 291.383 125.711 291.078 125.449L290.897 125.293C290.08 125.487 289.271 125.703 288.466 125.943L288.668 126.087C291.041 128.269 294.143 130.554 297.885 132.876Z" fill="#D4D4D4"/>
<path d="M261.637 192.156C264.415 192.472 267.645 193.116 271.165 194.078C275.899 195.37 281.159 197.228 286.571 199.597C295.367 203.447 302.898 207.925 307.9 211.994C308.267 212.29 308.61 212.583 308.947 212.873L309.028 212.942C309.848 212.747 310.661 212.53 311.469 212.289L311.332 212.181C308.959 210 305.857 207.715 302.114 205.393C297.79 202.713 292.724 200.077 287.46 197.772C278.882 194.017 270.422 191.383 263.644 190.355C262.64 190.203 261.644 190.087 260.681 190.008L260.369 189.931C260.736 190.679 261.124 191.418 261.533 192.143L261.637 192.156Z" fill="#D4D4D4"/>
<path d="M351.913 464.693C349.738 456.502 346.318 449.974 342.363 444.48C341.232 442.912 340.066 441.416 338.864 440.004C337.161 438.005 335.406 436.151 333.642 434.374C329.788 430.496 325.881 427.022 322.315 423.462C320.474 421.63 318.67 419.579 317.161 417.288L306.927 413.241C307.789 416.052 309.011 418.577 310.419 420.811C310.772 421.374 311.148 421.9 311.521 422.427C313.257 424.886 315.16 427.005 316.979 428.819C321.174 432.989 325.489 436.789 329.464 440.905C330.716 442.2 331.934 443.523 333.103 444.901C337.991 450.67 342.104 457.293 344.606 466.639C345.465 469.849 346.001 473.31 345.998 476.266C345.999 477.872 345.839 479.325 345.545 480.479C345.252 481.638 344.831 482.47 344.412 482.975C344.006 483.462 343.659 483.7 343.255 483.879C342.851 484.053 342.355 484.159 341.697 484.16C340.731 484.166 339.44 483.9 338.049 483.381C336.658 482.868 335.174 482.121 333.773 481.295C327.024 477.338 319.964 470.183 314.55 460.754C308.725 450.66 305.197 438.239 303.92 426.124C303.891 425.846 303.847 425.566 303.82 425.287C303.541 422.421 303.331 419.073 303.262 415.623C303.248 414.875 303.231 414.129 303.231 413.374C303.231 412.845 303.239 412.316 303.248 411.787L295.774 408.831C295.709 410.347 295.669 411.867 295.669 413.374C295.669 415.288 295.726 417.164 295.807 418.991C295.918 421.488 296.086 423.876 296.295 426.02C297.596 439.314 301.371 453.008 307.998 464.527C314.011 474.956 321.808 483.015 329.937 487.811C331.62 488.8 333.465 489.747 335.429 490.473C337.392 491.195 339.481 491.716 341.697 491.721C343.19 491.722 344.754 491.469 346.254 490.821C347.752 490.179 349.147 489.133 350.259 487.77L350.26 487.769C351.58 486.153 352.38 484.277 352.875 482.337C353.366 480.392 353.558 478.352 353.559 476.266C353.554 472.436 352.905 468.433 351.913 464.693Z" fill="#CFDB64"/>
<path d="M313.353 138.639C318.766 141.008 324.025 142.865 328.758 144.157C332.224 145.103 335.406 145.742 338.156 146.063L337.946 145.704C337.489 144.918 336.994 144.164 336.494 143.415C334.56 140.518 332.311 137.891 329.774 135.574C326.339 132.438 322.399 129.856 318.036 127.945C309.617 124.259 300.436 123.365 291.486 125.358L291.079 125.449C291.384 125.711 291.694 125.974 292.024 126.241C297.026 130.309 304.559 134.789 313.353 138.639Z" fill="#CFDB64"/>
<path d="M308.543 212.964L308.947 212.873C308.609 212.583 308.266 212.29 307.899 211.994C302.897 207.925 295.367 203.447 286.571 199.597C281.159 197.228 275.899 195.369 271.165 194.078C267.645 193.116 264.415 192.472 261.637 192.155L261.844 192.513C265.834 199.382 271.533 204.907 278.449 208.677C279.557 209.281 280.688 209.85 281.857 210.361C283.273 210.982 284.718 211.494 286.173 211.957C293.41 214.257 301.054 214.631 308.543 212.964Z" fill="#CFDB64"/>
<path d="M287.46 197.771C292.724 200.077 297.79 202.713 302.114 205.393C305.857 207.715 308.96 209.999 311.332 212.181L311.469 212.289L311.632 212.378C311.849 212.473 312.095 212.49 312.331 212.43C312.343 212.427 312.356 212.43 312.366 212.426C315.01 211.669 317.546 210.673 319.966 209.479C329.396 204.824 336.947 197.006 341.243 187.194C346.643 174.864 346.262 160.89 340.199 148.856C340.084 148.628 339.892 148.448 339.666 148.35L339.561 148.313L339.317 148.262C338.357 148.184 337.362 148.066 336.356 147.915C329.578 146.886 321.12 144.252 312.54 140.496C307.278 138.193 302.21 135.556 297.886 132.876C294.143 130.554 291.041 128.269 288.669 126.088L288.467 125.944L288.37 125.89C288.141 125.791 287.882 125.771 287.635 125.842C282.551 127.296 277.85 129.608 273.677 132.611C270.726 134.736 268.044 137.21 265.689 139.987C262.888 143.289 260.538 147.007 258.757 151.074C253.358 163.405 253.739 177.379 259.8 189.412C259.917 189.642 260.107 189.819 260.336 189.919L260.369 189.931L260.682 190.007C261.644 190.086 262.64 190.202 263.644 190.354C270.422 191.382 278.882 194.017 287.46 197.771Z" fill="#CFDB64"/>
<path d="M169.824 158.056C171.642 157.389 172.575 155.373 171.908 153.555C171.242 151.74 169.229 150.804 167.409 151.471C165.59 152.139 164.659 154.152 165.325 155.97C165.992 157.787 168.005 158.722 169.824 158.056Z" fill="#E0E0E0"/>
<path d="M188.3 151.282C190.119 150.615 191.051 148.599 190.385 146.782C189.718 144.964 187.705 144.029 185.886 144.697C184.067 145.363 183.132 147.377 183.801 149.196C184.468 151.014 186.482 151.948 188.3 151.282Z" fill="#E0E0E0"/>
<path d="M206.776 144.506C208.596 143.839 209.528 141.825 208.862 140.007C208.195 138.188 206.181 137.255 204.363 137.922C202.543 138.588 201.611 140.603 202.276 142.421C202.944 144.239 204.958 145.174 206.776 144.506Z" fill="#E0E0E0"/>
<path d="M225.253 137.732C227.071 137.065 228.004 135.051 227.337 133.233C226.671 131.413 224.657 130.481 222.84 131.148C221.021 131.814 220.086 133.829 220.754 135.647C221.419 137.465 223.435 138.397 225.253 137.732Z" fill="#E0E0E0"/>
<path d="M170.546 170.211C171.214 172.029 173.226 172.963 175.045 172.297C176.863 171.63 177.797 169.614 177.129 167.796C176.464 165.978 174.449 165.046 172.631 165.711C170.812 166.379 169.88 168.391 170.546 170.211Z" fill="#E0E0E0"/>
<path d="M189.022 163.436C189.689 165.256 191.702 166.189 193.521 165.523C195.339 164.857 196.274 162.842 195.605 161.023C194.939 159.205 192.924 158.27 191.108 158.937C189.288 159.605 188.356 161.619 189.022 163.436Z" fill="#E0E0E0"/>
<path d="M207.499 156.662C208.165 158.481 210.179 159.415 212 158.748C213.815 158.081 214.749 156.067 214.082 154.249C213.416 152.43 211.401 151.497 209.583 152.163C207.766 152.829 206.832 154.846 207.499 156.662Z" fill="#E0E0E0"/>
<path d="M225.974 149.889C226.641 151.705 228.656 152.641 230.473 151.974C232.292 151.307 233.226 149.293 232.559 147.475C231.892 145.657 229.879 144.722 228.061 145.389C226.242 146.056 225.309 148.071 225.974 149.889Z" fill="#E0E0E0"/>
<path d="M163.876 188.812C163.209 186.996 161.194 186.062 159.377 186.728C157.558 187.394 156.624 189.411 157.29 191.228C157.958 193.046 159.97 193.979 161.791 193.311C163.608 192.646 164.542 190.632 163.876 188.812Z" fill="#E0E0E0"/>
<path d="M158.655 174.571C157.988 172.754 155.974 171.818 154.156 172.486C152.335 173.153 151.403 175.168 152.068 176.985C152.736 178.804 154.749 179.737 156.569 179.072C158.388 178.404 159.322 176.39 158.655 174.571Z" fill="#E0E0E0"/>
<path d="M182.352 182.038C181.686 180.22 179.671 179.288 177.854 179.953C176.033 180.62 175.102 182.634 175.768 184.452C176.435 186.27 178.447 187.205 180.267 186.539C182.085 185.871 183.017 183.856 182.352 182.038Z" fill="#E0E0E0"/>
<path d="M194.243 177.678C194.911 179.495 196.923 180.43 198.743 179.762C200.56 179.097 201.494 177.081 200.828 175.264C200.16 173.446 198.147 172.512 196.328 173.179C194.51 173.845 193.577 175.86 194.243 177.678Z" fill="#E0E0E0"/>
<path d="M212.721 170.905C213.386 172.723 215.401 173.656 217.22 172.99C219.039 172.323 219.971 170.308 219.304 168.491C218.638 166.671 216.623 165.738 214.806 166.405C212.987 167.071 212.054 169.088 212.721 170.905Z" fill="#E0E0E0"/>
<path d="M231.196 164.13C231.864 165.949 233.878 166.883 235.697 166.216C237.514 165.548 238.447 163.535 237.78 161.716C237.114 159.9 235.101 158.964 233.282 159.631C231.463 160.299 230.53 162.313 231.196 164.13Z" fill="#E0E0E0"/>
<path d="M248.95 145.199C250.769 144.533 251.702 142.519 251.035 140.699C250.369 138.88 248.355 137.948 246.535 138.614C244.717 139.283 243.785 141.297 244.452 143.115C245.117 144.933 247.13 145.867 248.95 145.199Z" fill="#E0E0E0"/>
<path d="M169.096 203.054C168.43 201.236 166.417 200.302 164.597 200.967C162.779 201.635 161.846 203.648 162.511 205.469C163.179 207.287 165.193 208.222 167.01 207.554C168.831 206.887 169.764 204.872 169.096 203.054Z" fill="#E0E0E0"/>
<path d="M187.574 196.281C186.907 194.462 184.892 193.528 183.075 194.193C181.254 194.861 180.323 196.877 180.989 198.695C181.656 200.514 183.669 201.446 185.488 200.78C187.305 200.113 188.241 198.099 187.574 196.281Z" fill="#E0E0E0"/>
<path d="M206.05 189.505C205.383 187.689 203.368 186.754 201.55 187.419C199.732 188.087 198.798 190.102 199.466 191.919C200.133 193.738 202.146 194.674 203.964 194.007C205.783 193.339 206.716 191.324 206.05 189.505Z" fill="#E0E0E0"/>
<path d="M217.942 185.146C218.608 186.966 220.622 187.897 222.441 187.231C224.259 186.565 225.193 184.552 224.526 182.732C223.86 180.914 221.846 179.979 220.027 180.645C218.207 181.314 217.276 183.328 217.942 185.146Z" fill="#E0E0E0"/>
<path d="M236.418 178.372C237.084 180.191 239.099 181.123 240.917 180.457C242.737 179.791 243.669 177.777 243.002 175.958C242.335 174.138 240.323 173.204 238.503 173.872C236.685 174.539 235.752 176.553 236.418 178.372Z" fill="#E0E0E0"/>
<path d="M174.318 217.296C173.652 215.478 171.637 214.544 169.82 215.21C168.001 215.876 167.066 217.891 167.734 219.71C168.4 221.527 170.414 222.462 172.234 221.794C174.052 221.128 174.985 219.114 174.318 217.296Z" fill="#E0E0E0"/>
<path d="M175.041 229.452C173.222 230.119 172.289 232.134 172.956 233.952C173.622 235.77 175.636 236.703 177.455 236.036C179.274 235.369 180.207 233.355 179.54 231.537C178.872 229.718 176.86 228.785 175.041 229.452Z" fill="#E0E0E0"/>
<path d="M192.795 210.523C192.129 208.704 190.114 207.769 188.296 208.436C186.475 209.103 185.545 211.118 186.211 212.936C186.877 214.754 188.89 215.688 190.71 215.021C192.529 214.355 193.461 212.34 192.795 210.523Z" fill="#E0E0E0"/>
<path d="M211.27 203.748C210.604 201.931 208.59 200.995 206.771 201.661C204.952 202.328 204.019 204.345 204.687 206.162C205.353 207.98 207.367 208.912 209.186 208.248C211.004 207.581 211.937 205.567 211.27 203.748Z" fill="#E0E0E0"/>
<path d="M229.748 196.972C229.081 195.156 227.067 194.221 225.248 194.887C223.429 195.554 222.496 197.568 223.163 199.388C223.829 201.205 225.844 202.139 227.663 201.472C229.481 200.805 230.413 198.79 229.748 196.972Z" fill="#E0E0E0"/>
<path d="M241.639 192.613C242.308 194.429 244.321 195.364 246.138 194.696C247.959 194.032 248.891 192.015 248.224 190.197C247.558 188.38 245.543 187.445 243.726 188.114C241.906 188.779 240.973 190.794 241.639 192.613Z" fill="#E0E0E0"/>
<path d="M198.017 224.763C197.35 222.945 195.334 222.011 193.518 222.678C191.698 223.345 190.767 225.359 191.433 227.176C192.099 228.995 194.112 229.93 195.932 229.262C197.749 228.596 198.683 226.581 198.017 224.763Z" fill="#E0E0E0"/>
<path d="M214.408 222.488C216.226 221.821 217.159 219.807 216.492 217.989C215.825 216.171 213.811 215.236 211.994 215.902C210.175 216.569 209.242 218.585 209.909 220.403C210.574 222.222 212.589 223.154 214.408 222.488Z" fill="#E0E0E0"/>
<path d="M232.885 215.714C234.702 215.048 235.635 213.032 234.968 211.216C234.302 209.395 232.287 208.463 230.469 209.128C228.651 209.796 227.718 211.809 228.386 213.629C229.052 215.446 231.065 216.38 232.885 215.714Z" fill="#E0E0E0"/>
<path d="M248.947 202.356C247.128 203.02 246.195 205.037 246.862 206.855C247.527 208.672 249.542 209.606 251.361 208.939C253.179 208.272 254.111 206.259 253.445 204.44C252.778 202.621 250.766 201.689 248.947 202.356Z" fill="#E0E0E0"/>
<path d="M198.739 236.919C196.92 237.587 195.988 239.601 196.655 241.417C197.321 243.237 199.334 244.171 201.152 243.503C202.972 242.836 203.905 240.823 203.237 239.004C202.573 237.187 200.558 236.252 198.739 236.919Z" fill="#E0E0E0"/>
<path d="M217.215 230.146C215.397 230.811 214.463 232.827 215.129 234.643C215.798 236.463 217.81 237.396 219.628 236.73C221.446 236.062 222.381 234.049 221.714 232.231C221.048 230.411 219.034 229.479 217.215 230.146Z" fill="#E0E0E0"/>
<path d="M238.105 229.952C239.924 229.29 240.856 227.275 240.191 225.455C239.525 223.637 237.511 222.705 235.693 223.369C233.874 224.037 232.939 226.052 233.606 227.87C234.273 229.688 236.287 230.621 238.105 229.952Z" fill="#E0E0E0"/>
<path d="M258.667 218.681C258.001 216.864 255.987 215.931 254.168 216.595C252.349 217.263 251.416 219.278 252.082 221.096C252.75 222.914 254.763 223.846 256.582 223.18C258.4 222.512 259.334 220.5 258.667 218.681Z" fill="#E0E0E0"/>
<path d="M269.232 244.33C268.501 243.584 267.305 243.574 266.56 244.305C264.639 246.192 262.479 247.908 260.221 249.494C259.367 250.095 259.162 251.274 259.761 252.128C260.362 252.982 261.541 253.187 262.395 252.586C264.771 250.916 267.094 249.079 269.209 247.002C269.954 246.269 269.964 245.074 269.232 244.33Z" fill="#E0E0E0"/>
<path d="M249.646 255.119C245.413 257.718 239.487 260.25 233.523 262.095C227.565 263.947 221.525 265.114 217.174 265.108C215.672 265.109 214.38 264.969 213.404 264.713C212.393 264.45 211.361 265.055 211.098 266.065C210.835 267.076 211.44 268.108 212.451 268.371C213.865 268.738 215.446 268.886 217.174 268.888C222.156 268.881 228.418 267.629 234.642 265.706C240.861 263.777 246.998 261.174 251.622 258.342C252.511 257.797 252.792 256.633 252.246 255.743C251.699 254.853 250.536 254.574 249.646 255.119Z" fill="#E0E0E0"/>
<path d="M375.601 144.606C377.401 145.318 379.44 144.432 380.151 142.632C380.861 140.833 379.98 138.795 378.178 138.083C376.375 137.369 374.341 138.253 373.629 140.054C372.917 141.855 373.799 143.893 375.601 144.606Z" fill="#E0E0E0"/>
<path d="M393.9 151.839C395.702 152.552 397.741 151.669 398.452 149.868C399.161 148.066 398.281 146.029 396.479 145.318C394.68 144.606 392.642 145.488 391.93 147.291C391.219 149.09 392.101 151.128 393.9 151.839Z" fill="#E0E0E0"/>
<path d="M412.202 159.075C414.004 159.787 416.041 158.904 416.753 157.102C417.464 155.301 416.582 153.264 414.782 152.552C412.979 151.839 410.942 152.726 410.231 154.524C409.518 156.325 410.401 158.364 412.202 159.075Z" fill="#E0E0E0"/>
<path d="M430.503 166.309C432.304 167.021 434.342 166.137 435.052 164.338C435.766 162.535 434.884 160.499 433.082 159.79C431.281 159.077 429.243 159.958 428.532 161.759C427.821 163.56 428.702 165.597 430.503 166.309Z" fill="#E0E0E0"/>
<path d="M370.024 158.713C371.826 159.424 373.864 158.541 374.574 156.739C375.286 154.938 374.403 152.901 372.602 152.189C370.8 151.478 368.765 152.36 368.052 154.161C367.341 155.963 368.221 158 370.024 158.713Z" fill="#E0E0E0"/>
<path d="M388.325 165.945C390.125 166.658 392.162 165.775 392.874 163.974C393.585 162.173 392.703 160.135 390.904 159.424C389.101 158.71 387.063 159.594 386.354 161.395C385.642 163.199 386.521 165.235 388.325 165.945Z" fill="#E0E0E0"/>
<path d="M406.626 173.182C408.427 173.892 410.465 173.008 411.176 171.208C411.887 169.406 411.005 167.369 409.205 166.658C407.403 165.945 405.367 166.832 404.655 168.63C403.943 170.431 404.824 172.468 406.626 173.182Z" fill="#E0E0E0"/>
<path d="M424.926 180.417C426.727 181.128 428.765 180.244 429.476 178.443C430.189 176.645 429.307 174.607 427.505 173.894C425.703 173.183 423.669 174.064 422.955 175.865C422.245 177.666 423.128 179.704 424.926 180.417Z" fill="#E0E0E0"/>
<path d="M351.723 151.475C353.525 152.189 355.561 151.305 356.275 149.506C356.985 147.706 356.104 145.666 354.301 144.956C352.501 144.244 350.462 145.125 349.75 146.926C349.04 148.727 349.922 150.765 351.723 151.475Z" fill="#E0E0E0"/>
<path d="M364.448 172.818C366.247 173.529 368.285 172.646 368.998 170.845C369.712 169.044 368.828 167.008 367.027 166.296C365.223 165.584 363.188 166.468 362.476 168.266C361.764 170.067 362.644 172.104 364.448 172.818Z" fill="#E0E0E0"/>
<path d="M382.749 180.052C384.549 180.763 386.587 179.881 387.298 178.08C388.009 176.279 387.128 174.243 385.326 173.531C383.524 172.819 381.488 173.701 380.779 175.501C380.065 177.303 380.948 179.339 382.749 180.052Z" fill="#E0E0E0"/>
<path d="M401.049 187.288C402.851 188 404.888 187.117 405.599 185.315C406.312 183.517 405.428 181.478 403.627 180.765C401.827 180.053 399.789 180.937 399.077 182.738C398.366 184.539 399.25 186.574 401.049 187.288Z" fill="#E0E0E0"/>
<path d="M419.352 194.522C421.153 195.233 423.188 194.351 423.898 192.551C424.611 190.751 423.73 188.712 421.931 188C420.127 187.288 418.089 188.171 417.379 189.973C416.667 191.771 417.55 193.809 419.352 194.522Z" fill="#E0E0E0"/>
<path d="M440.229 195.233C438.427 194.521 436.391 195.406 435.678 197.207C434.968 199.008 435.85 201.044 437.653 201.756C439.453 202.469 441.489 201.585 442.203 199.785C442.913 197.985 442.03 195.946 440.229 195.233Z" fill="#E0E0E0"/>
<path d="M445.805 181.128C444.003 180.417 441.966 181.301 441.255 183.099C440.544 184.9 441.425 186.937 443.226 187.649C445.03 188.363 447.064 187.481 447.778 185.676C448.491 183.875 447.607 181.84 445.805 181.128Z" fill="#E0E0E0"/>
<path d="M358.873 186.925C360.67 187.636 362.71 186.755 363.421 184.952C364.132 183.149 363.25 181.114 361.451 180.401C359.649 179.689 357.611 180.575 356.899 182.374C356.188 184.176 357.069 186.211 358.873 186.925Z" fill="#E0E0E0"/>
<path d="M379.75 187.636C377.949 186.924 375.912 187.807 375.201 189.607C374.488 191.41 375.37 193.448 377.17 194.159C378.972 194.871 381.01 193.988 381.721 192.188C382.434 190.387 381.551 188.349 379.75 187.636Z" fill="#E0E0E0"/>
<path d="M398.052 194.87C396.249 194.159 394.215 195.042 393.502 196.843C392.788 198.644 393.671 200.68 395.475 201.393C397.276 202.104 399.311 201.225 400.024 199.422C400.736 197.621 399.853 195.58 398.052 194.87Z" fill="#E0E0E0"/>
<path d="M416.351 202.105C414.551 201.393 412.514 202.276 411.801 204.078C411.09 205.881 411.974 207.915 413.774 208.628C415.576 209.342 417.611 208.458 418.324 206.658C419.034 204.855 418.155 202.818 416.351 202.105Z" fill="#E0E0E0"/>
<path d="M434.653 209.342C432.852 208.628 430.814 209.51 430.104 211.314C429.39 213.114 430.274 215.151 432.075 215.863C433.876 216.573 435.912 215.693 436.625 213.891C437.336 212.091 436.455 210.053 434.653 209.342Z" fill="#E0E0E0"/>
<path d="M355.873 194.509C354.072 193.795 352.036 194.68 351.323 196.481C350.613 198.283 351.493 200.319 353.295 201.031C355.095 201.744 357.131 200.858 357.845 199.06C358.556 197.259 357.675 195.22 355.873 194.509Z" fill="#E0E0E0"/>
<path d="M374.173 201.74C372.374 201.03 370.334 201.913 369.623 203.714C368.913 205.516 369.794 207.551 371.594 208.264C373.396 208.977 375.433 208.095 376.144 206.293C376.857 204.493 375.975 202.455 374.173 201.74Z" fill="#E0E0E0"/>
<path d="M392.477 208.978C390.673 208.265 388.636 209.149 387.925 210.95C387.213 212.75 388.096 214.789 389.896 215.5C391.699 216.211 393.734 215.327 394.447 213.528C395.158 211.728 394.276 209.689 392.477 208.978Z" fill="#E0E0E0"/>
<path d="M410.777 216.213C408.976 215.499 406.937 216.384 406.225 218.185C405.514 219.985 406.397 222.023 408.199 222.735C410 223.449 412.037 222.565 412.749 220.763C413.459 218.961 412.578 216.923 410.777 216.213Z" fill="#E0E0E0"/>
<path d="M429.077 223.448C427.276 222.735 425.238 223.618 424.527 225.418C423.815 227.221 424.697 229.257 426.5 229.97C428.299 230.682 430.336 229.796 431.048 227.998C431.761 226.197 430.879 224.16 429.077 223.448Z" fill="#E0E0E0"/>
<path d="M423.501 237.554C421.699 236.842 419.663 237.726 418.95 239.526C418.237 241.326 419.12 243.364 420.923 244.078C422.724 244.786 424.76 243.905 425.472 242.104C426.185 240.302 425.3 238.265 423.501 237.554Z" fill="#E0E0E0"/>
<path d="M347.719 215.137C349.518 215.847 351.557 214.967 352.267 213.165C352.981 211.366 352.098 209.328 350.296 208.615C348.495 207.902 346.461 208.787 345.748 210.586C345.036 212.386 345.917 214.425 347.719 215.137Z" fill="#E0E0E0"/>
<path d="M370.571 220.4C371.279 218.599 370.398 216.56 368.6 215.85C366.796 215.137 364.761 216.021 364.048 217.82C363.336 219.623 364.22 221.659 366.021 222.371C367.822 223.082 369.858 222.198 370.571 220.4Z" fill="#E0E0E0"/>
<path d="M382.35 225.056C381.638 226.857 382.519 228.895 384.321 229.608C386.122 230.319 388.16 229.434 388.87 227.635C389.582 225.833 388.699 223.795 386.898 223.084C385.097 222.371 383.059 223.255 382.35 225.056Z" fill="#E0E0E0"/>
<path d="M405.2 230.32C403.398 229.608 401.36 230.491 400.648 232.293C399.937 234.09 400.82 236.128 402.621 236.84C404.422 237.552 406.458 236.67 407.172 234.868C407.882 233.067 406.999 231.033 405.2 230.32Z" fill="#E0E0E0"/>
<path d="M342.142 229.242C343.942 229.952 345.98 229.072 346.69 227.27C347.404 225.471 346.522 223.434 344.72 222.724C342.919 222.009 340.882 222.892 340.171 224.691C339.46 226.493 340.34 228.53 342.142 229.242Z" fill="#E0E0E0"/>
<path d="M363.02 229.957C361.218 229.245 359.183 230.126 358.47 231.926C357.76 233.728 358.642 235.765 360.443 236.477C362.243 237.187 364.281 236.306 364.993 234.506C365.706 232.706 364.822 230.667 363.02 229.957Z" fill="#E0E0E0"/>
<path d="M383.294 241.739C384.004 239.938 383.124 237.904 381.324 237.191C379.522 236.48 377.483 237.362 376.774 239.162C376.059 240.962 376.943 243 378.744 243.71C380.544 244.423 382.58 243.541 383.294 241.739Z" fill="#E0E0E0"/>
<path d="M399.623 244.424C397.822 243.714 395.785 244.597 395.072 246.396C394.361 248.199 395.244 250.235 397.045 250.948C398.846 251.658 400.883 250.778 401.595 248.974C402.308 247.174 401.424 245.137 399.623 244.424Z" fill="#E0E0E0"/>
<path d="M390.44 273.355C389.794 273.387 389.145 273.401 388.492 273.401C386.428 273.401 384.339 273.253 382.255 273.01C381.218 272.889 380.28 273.633 380.16 274.67C380.039 275.706 380.782 276.645 381.819 276.766C384.013 277.02 386.248 277.182 388.492 277.182C389.202 277.182 389.912 277.165 390.622 277.131C391.665 277.082 392.469 276.196 392.419 275.152C392.368 274.11 391.483 273.305 390.44 273.355Z" fill="#E0E0E0"/>
<path d="M370.617 270.178C364.881 269.151 357.473 266.502 351.036 263.271C347.813 261.659 344.825 259.901 342.402 258.155C339.978 256.416 338.123 254.661 337.18 253.229C336.6 252.36 335.426 252.125 334.558 252.705C333.688 253.283 333.455 254.458 334.034 255.326C335.412 257.377 337.554 259.314 340.193 261.221C344.152 264.07 349.247 266.798 354.524 269.046C359.806 271.292 365.253 273.051 369.949 273.897C370.977 274.082 371.958 273.398 372.143 272.371C372.327 271.344 371.645 270.362 370.617 270.178Z" fill="#E0E0E0"/>
<path d="M325.814 407.98C320.055 407.12 312.445 404.785 305.578 402.055C302.14 400.692 298.882 399.229 296.118 397.813C293.359 396.403 291.085 395.022 289.685 393.906C288.867 393.258 287.678 393.394 287.029 394.211C286.38 395.03 286.516 396.219 287.334 396.867C289.074 398.244 291.498 399.691 294.395 401.178C298.736 403.402 304.119 405.677 309.584 407.581C315.049 409.484 320.575 411.014 325.253 411.719C326.285 411.873 327.248 411.162 327.403 410.13C327.557 409.098 326.846 408.135 325.814 407.98Z" fill="#E0E0E0"/>
<path d="M262.809 186.939C263.279 187.871 264.415 188.247 265.347 187.776C266.279 187.308 266.655 186.171 266.185 185.239C265.078 183.043 264.191 180.736 263.545 178.368C262.7 175.272 262.289 172.098 262.289 168.935C262.287 159.068 266.299 149.31 273.524 142.39C274.277 141.668 274.302 140.47 273.58 139.717C272.857 138.963 271.661 138.939 270.907 139.661C262.91 147.331 258.512 158.05 258.508 168.936C258.508 172.426 258.962 175.935 259.898 179.364C260.612 181.978 261.59 184.519 262.809 186.939Z" fill="#E0E0E0"/>
<path d="M280.404 137.208C283.03 135.681 285.851 134.482 288.774 133.645C289.778 133.359 290.358 132.313 290.072 131.309C289.784 130.305 288.738 129.725 287.734 130.012C284.511 130.933 281.403 132.254 278.503 133.941C277.6 134.465 277.294 135.623 277.819 136.525C278.344 137.427 279.502 137.733 280.404 137.208Z" fill="#E0E0E0"/>
<path d="M270.969 321.786C270.541 320.835 269.422 320.411 268.47 320.839C264.837 322.482 260.881 324.043 257.217 324.327C256.176 324.411 255.401 325.321 255.484 326.363C255.567 327.403 256.478 328.179 257.519 328.095C261.998 327.729 266.281 325.963 270.022 324.285C270.974 323.857 271.398 322.739 270.969 321.786Z" fill="#E0E0E0"/>
<path d="M273.628 335.297C273.243 334.326 272.144 333.851 271.174 334.236C268.208 335.416 265.136 336.515 262.249 336.739C261.209 336.822 260.432 337.733 260.515 338.774C260.598 339.814 261.509 340.59 262.549 340.507C266.149 340.215 269.531 338.947 272.568 337.75C273.538 337.365 274.013 336.266 273.628 335.297Z" fill="#E0E0E0"/>
<path d="M279.688 347.088C279.282 346.127 278.174 345.676 277.212 346.082C273.899 347.486 270.389 348.813 267.112 349.067C266.071 349.15 265.295 350.062 265.377 351.102C265.46 352.143 266.371 352.919 267.412 352.836C271.458 352.506 275.287 350.99 278.681 349.565C279.643 349.159 280.094 348.05 279.688 347.088Z" fill="#E0E0E0"/>
<path d="M281.714 360.782C281.361 359.8 280.278 359.29 279.295 359.644C276.88 360.517 274.446 361.299 272.142 361.479C271.102 361.563 270.325 362.473 270.408 363.514C270.492 364.555 271.402 365.331 272.444 365.248C275.364 365.01 278.091 364.092 280.577 363.2C281.558 362.847 282.068 361.764 281.714 360.782Z" fill="#E0E0E0"/>
<path d="M287.781 372.622C287.407 371.648 286.314 371.16 285.339 371.534C282.553 372.608 279.696 373.599 277.005 373.808C275.964 373.891 275.189 374.803 275.272 375.843C275.355 376.883 276.267 377.66 277.307 377.576C280.68 377.302 283.84 376.153 286.694 375.063C287.668 374.689 288.155 373.597 287.781 372.622Z" fill="#E0E0E0"/>
<path d="M341.229 332.474C337.584 332.011 333.709 330.26 330.161 328.441C329.23 327.968 328.091 328.336 327.617 329.268C327.142 330.196 327.512 331.334 328.441 331.81C332.097 333.666 336.288 335.639 340.745 336.224C341.78 336.357 342.728 335.627 342.862 334.592C342.996 333.556 342.264 332.608 341.229 332.474Z" fill="#E0E0E0"/>
<path d="M335.599 344.626C332.727 344.262 329.711 343.015 326.805 341.691C325.856 341.26 324.736 341.68 324.304 342.631C323.872 343.582 324.294 344.702 325.244 345.134C328.218 346.478 331.535 347.907 335.116 348.376C336.152 348.509 337.099 347.778 337.232 346.744C337.365 345.707 336.634 344.76 335.599 344.626Z" fill="#E0E0E0"/>
<path d="M330.142 356.703C326.881 356.289 323.439 354.794 320.2 353.23C319.259 352.778 318.129 353.174 317.676 354.114C317.225 355.056 317.621 356.185 318.563 356.637C321.883 358.225 325.634 359.926 329.659 360.453C330.694 360.585 331.641 359.855 331.776 358.819C331.909 357.784 331.177 356.836 330.142 356.703Z" fill="#E0E0E0"/>
<path d="M316.005 370.164C318.444 371.175 321.123 372.225 324.029 372.604C325.063 372.737 326.011 372.008 326.145 370.972C326.279 369.937 325.548 368.989 324.512 368.855C322.221 368.563 319.828 367.663 317.457 366.673C316.495 366.274 315.387 366.729 314.987 367.693C314.585 368.657 315.041 369.763 316.005 370.164Z" fill="#E0E0E0"/>
<path d="M309.317 381.713C312.115 382.942 315.215 384.241 318.572 384.681C319.607 384.815 320.554 384.084 320.687 383.048C320.822 382.013 320.091 381.065 319.056 380.931C316.378 380.592 313.573 379.463 310.842 378.254C309.887 377.834 308.771 378.267 308.351 379.222C307.929 380.177 308.361 381.293 309.317 381.713Z" fill="#E0E0E0"/>
</svg>
